<?xml version="1.0" encoding="utf-8"?>
<!-- Generator: Adobe Illustrator 23.0.3, SVG Export Plug-In . SVG Version: 6.00 Build 0)  -->
<svg version="1.1" id="Layer_1" xmlns="http://www.w3.org/2000/svg" xmlns:xlink="http://www.w3.org/1999/xlink" x="0px" y="0px"
	 viewBox="0 0 76.7 37" style="enable-background:new 0 0 76.7 37;" xml:space="preserve">
<style type="text/css">
	.st0{fill:#FFFFFF;}
	.st1{fill:#B4B4B4;stroke:#7F7F7F;stroke-width:0.4;stroke-miterlimit:10;}
	.st2{fill:none;stroke:#898989;stroke-width:0.2;stroke-miterlimit:10;}
	.st3{fill:none;stroke:#A8502A;stroke-width:0.5;stroke-miterlimit:10;}
	.st4{fill:#FDA647;}
	.st5{fill:none;stroke:#99411A;stroke-width:0.3;stroke-miterlimit:10;}
</style>
<g>
	
		<image style="overflow:visible;opacity:0.38;enable-background:new    ;" width="57" height="37" xlink:href="E6EE43E6.png"  transform="matrix(1 0 0 1 19.6671 0)">
	</image>
	<g>
		<polygon class="st0" points="62.1,32.9 23,32.9 23,2.9 73.1,2.9 		"/>
	</g>
</g>
<g>
	<path class="st1" d="M0.4,16.9c0,0-2.9,11.6,12.7,11.9c2.1,0.1,13-0.1,12.1-11.9C21.9,16.9,0.4,16.9,0.4,16.9z"/>
	<path class="st2" d="M0.4,16.9c0,0-0.9,10.8,12.4,11.2c7.9,0,12-3.7,12.3-11.2"/>
	<path class="st3" d="M12.9,8.8c0,0,10.5-0.9,12.1,7.6c0.1,0.8-0.2,8.6-11.3,8.5c-2.9,0-12.6-1-13.4-7.7C0.3,15.4,0.6,8.8,12.9,8.8z
		"/>
	<g>
		<g>
			<path class="st4" d="M13,8.1c0,0,10.5-0.9,12.1,7.5c0.1,0.8-0.3,9.2-11.4,9.1c-2.9,0-13-1-13.3-8.3C0.4,14.6,0.8,8.1,13,8.1z"/>
		</g>
	</g>
	<path class="st5" d="M13,9.3c0,0,9-0.7,10.5,5.7c0.5,1.4-0.3,7-9.9,7c-2.5,0-11-0.7-11.5-6.4C2.1,14.3,2.4,9.3,13,9.3z"/>
	<g>
		<g>
			<path d="M7.4,16.6h1.1v-2.3H7.6V14c0.4-0.1,0.7-0.1,1-0.2h0.5v2.8h1v0.3H7.4L7.4,16.6L7.4,16.6z"/>
			<path d="M10.8,15.3c0-1.1,0.6-1.6,1.5-1.6c0.9,0,1.5,0.6,1.5,1.6S13.3,17,12.3,17C11.4,17,10.8,16.4,10.8,15.3z M13.2,15.3
				c0-0.9-0.4-1.3-0.9-1.3s-0.9,0.4-0.9,1.3c0,0.9,0.4,1.3,0.9,1.3S13.2,16.3,13.2,15.3z"/>
			<path d="M14.5,15.3c0-1.1,0.6-1.6,1.5-1.6c0.9,0,1.5,0.6,1.5,1.6S16.9,17,16,17S14.5,16.4,14.5,15.3z M16.9,15.3
				c0-0.9-0.4-1.3-0.9-1.3c-0.5,0-0.9,0.4-0.9,1.3c0,0.9,0.4,1.3,0.9,1.3C16.5,16.7,16.9,16.3,16.9,15.3z"/>
		</g>
	</g>
	<g>
		<path d="M30.8,20.1h1.8v-5.1c0-0.2,0-0.4,0-0.6l-1.3,1c0,0-0.1,0.1-0.2,0.1c0,0-0.1,0-0.2,0c-0.1,0-0.1,0-0.2-0.1
			s-0.1-0.1-0.1-0.1l-0.5-0.6l2.6-2.3h1.2v7.6h1.6v1.1h-4.8C30.8,21.2,30.8,20.1,30.8,20.1z"/>
		<path d="M37.8,20.1h1.8v-5.1c0-0.2,0-0.4,0-0.6l-1.3,1.1c0,0-0.1,0.1-0.2,0.1c0,0-0.1,0-0.2,0c-0.1,0-0.2,0-0.2-0.1
			s-0.1-0.1-0.2-0.1l-0.5-0.6l2.7-2.3H41v7.6h1.6v1.1h-4.8V20.1z"/>
		<path d="M49.8,16.9c0,0.8-0.1,1.4-0.2,2s-0.4,1-0.7,1.4c-0.3,0.4-0.6,0.6-1,0.8s-0.8,0.3-1.3,0.3s-0.9-0.1-1.3-0.3s-0.7-0.5-1-0.8
			c-0.3-0.4-0.5-0.8-0.7-1.4c-0.2-0.6-0.2-1.2-0.2-2s0.1-1.4,0.2-2s0.4-1,0.7-1.4c0.3-0.4,0.6-0.6,1-0.8c0.4-0.2,0.8-0.3,1.3-0.3
			s0.9,0.1,1.3,0.3s0.7,0.4,1,0.8c0.3,0.4,0.5,0.8,0.7,1.4S49.8,16.1,49.8,16.9z M48.3,16.9c0-0.6,0-1.1-0.1-1.6s-0.2-0.7-0.4-1
			c-0.2-0.2-0.3-0.4-0.5-0.5s-0.4-0.1-0.6-0.1s-0.4,0.1-0.6,0.1c-0.2,0.1-0.4,0.3-0.5,0.5s-0.3,0.6-0.4,1S45,16.3,45,16.9
			s0,1.1,0.1,1.6s0.2,0.7,0.4,1s0.3,0.4,0.5,0.5c0.2,0.1,0.4,0.1,0.6,0.1c0.2,0,0.4,0,0.6-0.1s0.4-0.3,0.5-0.5s0.3-0.6,0.4-1
			S48.3,17.5,48.3,16.9z"/>
		<path d="M56.7,16.9c0,0.8-0.1,1.4-0.2,2s-0.4,1-0.7,1.4c-0.3,0.4-0.6,0.6-1,0.8s-0.8,0.3-1.3,0.3s-0.9-0.1-1.3-0.3s-0.7-0.5-1-0.8
			c-0.3-0.4-0.5-0.8-0.7-1.4c-0.2-0.6-0.2-1.2-0.2-2s0.1-1.4,0.2-2s0.4-1,0.7-1.4c0.3-0.4,0.6-0.6,1-0.8c0.4-0.2,0.8-0.3,1.3-0.3
			s0.9,0.1,1.3,0.3s0.7,0.4,1,0.8c0.3,0.4,0.5,0.8,0.7,1.4S56.7,16.1,56.7,16.9z M55.2,16.9c0-0.6,0-1.1-0.1-1.6s-0.2-0.7-0.4-1
			c-0.2-0.2-0.3-0.4-0.5-0.5s-0.4-0.1-0.6-0.1s-0.4,0.1-0.6,0.1c-0.2,0.1-0.4,0.3-0.5,0.5s-0.3,0.6-0.4,1s-0.1,0.9-0.1,1.6
			s0,1.1,0.1,1.6s0.2,0.7,0.4,1s0.3,0.4,0.5,0.5c0.2,0.1,0.4,0.1,0.6,0.1c0.2,0,0.4,0,0.6-0.1s0.4-0.3,0.5-0.5s0.3-0.6,0.4-1
			S55.2,17.5,55.2,16.9z"/>
	</g>
</g>
</svg>
