<?xml version="1.0" encoding="utf-8"?>
<!-- Generator: Adobe Illustrator 23.0.3, SVG Export Plug-In . SVG Version: 6.00 Build 0)  -->
<svg version="1.1" xmlns="http://www.w3.org/2000/svg" xmlns:xlink="http://www.w3.org/1999/xlink" x="0px" y="0px"
	 viewBox="0 0 76.7 37" style="enable-background:new 0 0 76.7 37;" xml:space="preserve">
<style type="text/css">
	.st0{display:none;}
	.st1{display:inline;}
	.st2{fill:#FFFFFF;}
	.st3{display:none;fill:#B4B4B4;stroke:#7F7F7F;stroke-width:0.4;stroke-miterlimit:10;}
	.st4{display:none;fill:none;stroke:#898989;stroke-width:0.2;stroke-miterlimit:10;}
	.st5{display:none;fill:none;stroke:#A8502A;stroke-width:0.5;stroke-miterlimit:10;}
	.st6{fill:#FDA647;}
	.st7{display:none;fill:none;stroke:#99411A;stroke-width:0.3;stroke-miterlimit:10;}
	.st8{fill:none;}
	.st9{fill:#383838;}
	.st10{fill:#F4F5F7;}
	.st11{fill:none;stroke:#9D9C9B;stroke-width:2.5;stroke-miterlimit:10;}
	.st12{fill:#2D130D;}
	.st13{fill:#F79823;}
	.st14{fill:none;stroke:#812919;stroke-miterlimit:10;}
	.st15{fill:#30200F;}
	.st16{fill:#FCED20;}
	.st17{fill:none;stroke:#9B6B29;stroke-width:2.5;stroke-miterlimit:10;}
	.st18{font-family:'Arial-BoldMT';}
	.st19{font-size:7.0332px;}
	.st20{fill:none;stroke:#9D9C9B;stroke-miterlimit:10;}
</style>
<g id="Layer_1" class="st0">
	<g class="st1">
		<g>
			<polygon class="st2" points="62.1,33.5 23,33.5 23,3.5 73.1,3.5 			"/>
		</g>
	</g>
	<g class="st1">
		<path class="st3" d="M0.4,17c0,0-2.9,11.6,12.7,11.9c2.1,0.1,13-0.1,12.1-11.9C21.9,17,0.4,17,0.4,17z"/>
		<path class="st4" d="M0.4,17c0,0-0.9,10.8,12.4,11.2c7.9,0,12-3.7,12.3-11.2"/>
		<path class="st5" d="M12.9,8.9c0,0,10.5-0.9,12.1,7.6c0.1,0.8-0.2,8.6-11.3,8.5c-2.9,0-12.6-1-13.4-7.7C0.3,15.5,0.6,8.9,12.9,8.9
			z"/>
		<g class="st0">
			<g class="st1">
				<path class="st6" d="M13,8.2c0,0,10.5-0.9,12.1,7.5c0.1,0.8-0.3,9.2-11.4,9.1c-2.9,0-13-1-13.3-8.3C0.4,14.7,0.8,8.2,13,8.2z"/>
			</g>
		</g>
		<path class="st7" d="M13,9.4c0,0,9-0.7,10.5,5.7c0.5,1.4-0.3,7-9.9,7c-2.5,0-11-0.7-11.5-6.4C2.1,14.4,2.4,9.4,13,9.4z"/>
		<g class="st0">
			<g class="st1">
				<path d="M7.4,16.7h1.1v-2.3H7.6v-0.3C8,14,8.3,14,8.6,13.9h0.5v2.8h1V17H7.4V16.7L7.4,16.7z"/>
				<path d="M10.8,15.4c0-1.1,0.6-1.6,1.5-1.6s1.5,0.6,1.5,1.6s-0.5,1.7-1.5,1.7C11.4,17.1,10.8,16.5,10.8,15.4z M13.2,15.4
					c0-0.9-0.4-1.3-0.9-1.3s-0.9,0.4-0.9,1.3c0,0.9,0.4,1.3,0.9,1.3S13.2,16.4,13.2,15.4z"/>
				<path d="M14.5,15.4c0-1.1,0.6-1.6,1.5-1.6s1.5,0.6,1.5,1.6s-0.6,1.7-1.5,1.7S14.5,16.5,14.5,15.4z M16.9,15.4
					c0-0.9-0.4-1.3-0.9-1.3s-0.9,0.4-0.9,1.3c0,0.9,0.4,1.3,0.9,1.3C16.5,16.8,16.9,16.4,16.9,15.4z"/>
			</g>
		</g>
		<g>
			<path d="M30.8,20.2h1.8v-5.1c0-0.2,0-0.4,0-0.6l-1.3,1c0,0-0.1,0.1-0.2,0.1c0,0-0.1,0-0.2,0s-0.1,0-0.2-0.1s-0.1-0.1-0.1-0.1
				l-0.5-0.6l2.6-2.3h1.2v7.6h1.6v1.1h-4.8C30.8,21.3,30.8,20.2,30.8,20.2z"/>
			<path d="M37.8,20.2h1.8v-5.1c0-0.2,0-0.4,0-0.6l-1.3,1.1c0,0-0.1,0.1-0.2,0.1c0,0-0.1,0-0.2,0c-0.1,0-0.2,0-0.2-0.1
				s-0.1-0.1-0.2-0.1L37,14.9l2.7-2.3H41v7.6h1.6v1.1h-4.8V20.2z"/>
			<path d="M49.8,17c0,0.8-0.1,1.4-0.2,2s-0.4,1-0.7,1.4s-0.6,0.6-1,0.8s-0.8,0.3-1.3,0.3s-0.9-0.1-1.3-0.3s-0.7-0.5-1-0.8
				C44,20,43.8,19.6,43.6,19s-0.2-1.2-0.2-2s0.1-1.4,0.2-2s0.4-1,0.7-1.4s0.6-0.6,1-0.8s0.8-0.3,1.3-0.3s0.9,0.1,1.3,0.3
				s0.7,0.4,1,0.8c0.3,0.4,0.5,0.8,0.7,1.4S49.8,16.2,49.8,17z M48.3,17c0-0.6,0-1.1-0.1-1.6s-0.2-0.7-0.4-1
				c-0.2-0.2-0.3-0.4-0.5-0.5s-0.4-0.1-0.6-0.1s-0.4,0.1-0.6,0.1c-0.2,0.1-0.4,0.3-0.5,0.5s-0.3,0.6-0.4,1S45,16.4,45,17
				s0,1.1,0.1,1.6s0.2,0.7,0.4,1s0.3,0.4,0.5,0.5s0.4,0.1,0.6,0.1c0.2,0,0.4,0,0.6-0.1s0.4-0.3,0.5-0.5s0.3-0.6,0.4-1
				S48.3,17.6,48.3,17z"/>
			<path d="M56.7,17c0,0.8-0.1,1.4-0.2,2s-0.4,1-0.7,1.4s-0.6,0.6-1,0.8s-0.8,0.3-1.3,0.3s-0.9-0.1-1.3-0.3s-0.7-0.5-1-0.8
				c-0.3-0.4-0.5-0.8-0.7-1.4s-0.2-1.2-0.2-2s0.1-1.4,0.2-2s0.4-1,0.7-1.4s0.6-0.6,1-0.8s0.8-0.3,1.3-0.3s0.9,0.1,1.3,0.3
				s0.7,0.4,1,0.8c0.3,0.4,0.5,0.8,0.7,1.4S56.7,16.2,56.7,17z M55.2,17c0-0.6,0-1.1-0.1-1.6s-0.2-0.7-0.4-1
				c-0.2-0.2-0.3-0.4-0.5-0.5s-0.4-0.1-0.6-0.1s-0.4,0.1-0.6,0.1c-0.2,0.1-0.4,0.3-0.5,0.5s-0.3,0.6-0.4,1S52,16.3,52,17
				s0,1.1,0.1,1.6s0.2,0.7,0.4,1s0.3,0.4,0.5,0.5s0.4,0.1,0.6,0.1c0.2,0,0.4,0,0.6-0.1s0.4-0.3,0.5-0.5s0.3-0.6,0.4-1
				S55.2,17.6,55.2,17z"/>
		</g>
	</g>
</g>
<g id="_x31_100" class="st0">
	<g class="st1">
		<g>
			<polygon class="st2" points="62.1,33.5 23,33.5 23,3.5 73.1,3.5 			"/>
		</g>
	</g>
	<g class="st1">
		<g>
			<ellipse class="st8" cx="13.9" cy="19.2" rx="13.8" ry="9.5"/>
			<ellipse class="st9" cx="13.9" cy="19.8" rx="13.8" ry="9.1"/>
			<ellipse class="st10" cx="13.9" cy="18.8" rx="13.8" ry="9.1"/>
			<ellipse class="st11" cx="13.9" cy="18.1" rx="11.5" ry="7.5"/>
			<g>
				<path d="M7.1,20.3H5.8v-3.5c-0.5,0.3-1,0.6-1.7,0.7v-0.8c0.3-0.1,0.7-0.2,1.1-0.5C5.6,16,5.9,15.8,6,15.5h1V20.3z"/>
				<path d="M11.2,15.5c0.6,0,1.2,0.2,1.5,0.5c0.4,0.4,0.7,1.1,0.7,2c0,0.9-0.2,1.6-0.7,2c-0.4,0.3-0.9,0.5-1.5,0.5
					c-0.7,0-1.2-0.2-1.6-0.5c-0.4-0.4-0.6-1-0.6-1.9c0-0.9,0.2-1.6,0.7-2C10,15.6,10.5,15.5,11.2,15.5z M11.2,16.2
					c-0.2,0-0.3,0-0.4,0.1c-0.1,0.1-0.2,0.2-0.3,0.4c-0.1,0.2-0.1,0.6-0.1,1.2s0,1,0.1,1.2s0.2,0.4,0.3,0.4c0.1,0.1,0.3,0.1,0.4,0.1
					s0.3,0,0.4-0.1c0.1-0.1,0.2-0.2,0.3-0.4c0.1-0.2,0.1-0.6,0.1-1.2s0-1-0.1-1.2c-0.1-0.2-0.2-0.4-0.3-0.4S11.3,16.2,11.2,16.2z"/>
				<path d="M16.4,15.5c0.6,0,1.2,0.2,1.5,0.5c0.4,0.4,0.7,1.1,0.7,2c0,0.9-0.2,1.6-0.7,2c-0.4,0.3-0.9,0.5-1.5,0.5
					c-0.7,0-1.2-0.2-1.6-0.5c-0.4-0.4-0.6-1-0.6-1.9c0-0.9,0.2-1.6,0.7-2C15.2,15.6,15.7,15.5,16.4,15.5z M16.4,16.2
					c-0.2,0-0.3,0-0.4,0.1c-0.1,0.1-0.2,0.2-0.3,0.4c-0.1,0.2-0.1,0.6-0.1,1.2s0,1,0.1,1.2s0.2,0.4,0.3,0.4c0.1,0.1,0.3,0.1,0.4,0.1
					s0.3,0,0.4-0.1c0.1-0.1,0.2-0.2,0.3-0.4c0.1-0.2,0.1-0.6,0.1-1.2s0-1-0.1-1.2c-0.1-0.2-0.2-0.4-0.3-0.4S16.5,16.2,16.4,16.2z"/>
				<path d="M21.6,15.5c0.6,0,1.2,0.2,1.5,0.5c0.4,0.4,0.7,1.1,0.7,2c0,0.9-0.2,1.6-0.7,2c-0.4,0.3-0.9,0.5-1.5,0.5
					c-0.7,0-1.2-0.2-1.6-0.5c-0.4-0.4-0.6-1-0.6-1.9c0-0.9,0.2-1.6,0.7-2C20.4,15.6,20.9,15.5,21.6,15.5z M21.6,16.2
					c-0.2,0-0.3,0-0.4,0.1c-0.1,0.1-0.2,0.2-0.3,0.4c-0.1,0.2-0.1,0.6-0.1,1.2s0,1,0.1,1.2s0.2,0.4,0.3,0.4c0.1,0.1,0.3,0.1,0.4,0.1
					s0.3,0,0.4-0.1c0.1-0.1,0.2-0.2,0.3-0.4c0.1-0.2,0.1-0.6,0.1-1.2s0-1-0.1-1.2c-0.1-0.2-0.2-0.4-0.3-0.4S21.7,16.2,21.6,16.2z"/>
			</g>
		</g>
		<g>
			<ellipse class="st12" cx="13.9" cy="18.2" rx="13.8" ry="9.1"/>
			<ellipse class="st13" cx="13.9" cy="17.2" rx="13.8" ry="9.1"/>
			<ellipse class="st14" cx="13.9" cy="16.5" rx="11.5" ry="7.5"/>
			<g>
				<path d="M9.7,18.8H8.4v-3.5c-0.5,0.3-1,0.6-1.7,0.7v-0.8c0.3-0.1,0.7-0.2,1.1-0.5c0.4-0.2,0.7-0.5,0.8-0.8h1V18.8z"/>
				<path d="M13.7,13.9c0.6,0,1.2,0.2,1.5,0.5c0.4,0.4,0.7,1.1,0.7,2c0,0.9-0.2,1.6-0.7,2c-0.4,0.3-0.9,0.5-1.5,0.5
					c-0.7,0-1.2-0.2-1.6-0.5c-0.4-0.4-0.6-1-0.6-1.9c0-0.9,0.2-1.6,0.7-2C12.6,14.1,13.1,13.9,13.7,13.9z M13.7,14.7
					c-0.2,0-0.3,0-0.4,0.1c-0.1,0.1-0.2,0.2-0.3,0.4c-0.1,0.2-0.1,0.6-0.1,1.2s0,1,0.1,1.2c0.1,0.2,0.2,0.4,0.3,0.4
					c0.1,0.1,0.3,0.1,0.4,0.1s0.3,0,0.4-0.1c0.1-0.1,0.2-0.2,0.3-0.4c0.1-0.2,0.1-0.6,0.1-1.2s0-1-0.1-1.2c-0.1-0.2-0.2-0.4-0.3-0.4
					S13.9,14.7,13.7,14.7z"/>
				<path d="M18.9,13.9c0.6,0,1.2,0.2,1.5,0.5c0.4,0.4,0.7,1.1,0.7,2c0,0.9-0.2,1.6-0.7,2c-0.4,0.3-0.9,0.5-1.5,0.5
					c-0.7,0-1.2-0.2-1.6-0.5c-0.4-0.4-0.6-1-0.6-1.9c0-0.9,0.2-1.6,0.7-2C17.8,14.1,18.3,13.9,18.9,13.9z M18.9,14.7
					c-0.2,0-0.3,0-0.4,0.1c-0.1,0.1-0.2,0.2-0.3,0.4c-0.1,0.2-0.1,0.6-0.1,1.2s0,1,0.1,1.2c0.1,0.2,0.2,0.4,0.3,0.4
					c0.1,0.1,0.3,0.1,0.4,0.1s0.3,0,0.4-0.1c0.1-0.1,0.2-0.2,0.3-0.4c0.1-0.2,0.1-0.6,0.1-1.2s0-1-0.1-1.2c-0.1-0.2-0.2-0.4-0.3-0.4
					S19.1,14.7,18.9,14.7z"/>
			</g>
		</g>
	</g>
	<g class="st1">
		<path class="st3" d="M0.4,17c0,0-2.9,11.6,12.7,11.9c2.1,0.1,13-0.1,12.1-11.9C21.9,17,0.4,17,0.4,17z"/>
		<path class="st4" d="M0.4,17c0,0-0.9,10.8,12.4,11.2c7.9,0,12-3.7,12.3-11.2"/>
		<path class="st5" d="M12.9,8.9c0,0,10.5-0.9,12.1,7.6c0.1,0.8-0.2,8.6-11.3,8.5c-2.9,0-12.6-1-13.4-7.7C0.3,15.5,0.6,8.9,12.9,8.9
			z"/>
		<g class="st0">
			<g class="st1">
				<path class="st6" d="M13,8.2c0,0,10.5-0.9,12.1,7.5c0.1,0.8-0.3,9.2-11.4,9.1c-2.9,0-13-1-13.3-8.3C0.4,14.7,0.8,8.2,13,8.2z"/>
			</g>
		</g>
		<path class="st7" d="M13,9.4c0,0,9-0.7,10.5,5.7c0.5,1.4-0.3,7-9.9,7c-2.5,0-11-0.7-11.5-6.4C2.1,14.4,2.4,9.4,13,9.4z"/>
		<g class="st0">
			<g class="st1">
				<path d="M7.4,16.7h1.1v-2.3H7.6v-0.3C8,14,8.3,14,8.6,13.9h0.5v2.8h1V17H7.4V16.7L7.4,16.7z"/>
				<path d="M10.8,15.4c0-1.1,0.6-1.6,1.5-1.6s1.5,0.6,1.5,1.6s-0.5,1.7-1.5,1.7C11.4,17.1,10.8,16.5,10.8,15.4z M13.2,15.4
					c0-0.9-0.4-1.3-0.9-1.3s-0.9,0.4-0.9,1.3c0,0.9,0.4,1.3,0.9,1.3S13.2,16.4,13.2,15.4z"/>
				<path d="M14.5,15.4c0-1.1,0.6-1.6,1.5-1.6s1.5,0.6,1.5,1.6s-0.6,1.7-1.5,1.7S14.5,16.5,14.5,15.4z M16.9,15.4
					c0-0.9-0.4-1.3-0.9-1.3s-0.9,0.4-0.9,1.3c0,0.9,0.4,1.3,0.9,1.3C16.5,16.8,16.9,16.4,16.9,15.4z"/>
			</g>
		</g>
	</g>
	<g>
		<path class="st1" d="M38.3,22.7h-1.6v-6.2c-0.6,0.6-1.3,1-2.1,1.2v-1.5c0.4-0.1,0.9-0.4,1.4-0.8s0.8-0.9,1-1.4h1.3V22.7z"/>
		<path class="st1" d="M44,22.7V21h-3.5v-1.4l3.7-5.5h1.4v5.4h1.1V21h-1.1v1.7H44z M44,19.6v-2.9l-2,2.9H44z"/>
		<path class="st1" d="M50.3,14.1c0.8,0,1.5,0.3,2,0.9c0.6,0.7,0.8,1.9,0.8,3.5c0,1.6-0.3,2.8-0.8,3.5c-0.5,0.6-1.1,0.9-1.9,0.9
			c-0.8,0-1.5-0.3-2-1s-0.8-1.8-0.8-3.4c0-1.6,0.3-2.8,0.8-3.5C48.8,14.4,49.4,14.1,50.3,14.1z M50.3,15.5c-0.2,0-0.4,0.1-0.5,0.2
			s-0.3,0.4-0.4,0.7c-0.1,0.4-0.2,1.1-0.2,2.2s0.1,1.7,0.2,2.1c0.1,0.4,0.2,0.6,0.4,0.8s0.3,0.2,0.5,0.2s0.4-0.1,0.5-0.2
			s0.3-0.4,0.4-0.7c0.1-0.4,0.2-1.1,0.2-2.1s-0.1-1.7-0.2-2.1s-0.2-0.6-0.4-0.8S50.5,15.5,50.3,15.5z"/>
		<path class="st1" d="M56.9,14.1c0.8,0,1.5,0.3,2,0.9c0.6,0.7,0.8,1.9,0.8,3.5c0,1.6-0.3,2.8-0.8,3.5c-0.5,0.6-1.1,0.9-1.9,0.9
			c-0.8,0-1.5-0.3-2-1s-0.8-1.8-0.8-3.4c0-1.6,0.3-2.8,0.8-3.5C55.4,14.4,56.1,14.1,56.9,14.1z M56.9,15.5c-0.2,0-0.4,0.1-0.5,0.2
			S56.1,16,56,16.4c-0.1,0.4-0.2,1.1-0.2,2.2s0.1,1.7,0.2,2.1c0.1,0.4,0.2,0.6,0.4,0.8s0.3,0.2,0.5,0.2s0.4-0.1,0.5-0.2
			s0.3-0.4,0.4-0.7c0.1-0.4,0.2-1.1,0.2-2.1s-0.1-1.7-0.2-2.1s-0.2-0.6-0.4-0.8S57.1,15.5,56.9,15.5z"/>
		<path class="st1" d="M63.6,14.1c0.8,0,1.5,0.3,2,0.9c0.6,0.7,0.8,1.9,0.8,3.5c0,1.6-0.3,2.8-0.8,3.5c-0.5,0.6-1.1,0.9-1.9,0.9
			c-0.8,0-1.5-0.3-2-1s-0.8-1.8-0.8-3.4c0-1.6,0.3-2.8,0.8-3.5C62.1,14.4,62.8,14.1,63.6,14.1z M63.6,15.5c-0.2,0-0.4,0.1-0.5,0.2
			s-0.3,0.4-0.4,0.7c-0.1,0.4-0.2,1.1-0.2,2.2s0.1,1.7,0.2,2.1c0.1,0.4,0.2,0.6,0.4,0.8s0.3,0.2,0.5,0.2s0.4-0.1,0.5-0.2
			c0.2-0.1,0.3-0.4,0.4-0.7c0.1-0.4,0.2-1.1,0.2-2.1s-0.1-1.7-0.2-2.1s-0.2-0.6-0.4-0.8C64,15.5,63.8,15.5,63.6,15.5z"/>
	</g>
	<g class="st1">
		<path d="M38.3,22.7h-1.6v-6.2c-0.6,0.6-1.3,1-2.1,1.2v-1.5c0.4-0.1,0.9-0.4,1.4-0.8s0.8-0.9,1-1.4h1.3V22.7z"/>
		<path d="M44.4,22.7h-1.6v-6.2c-0.6,0.6-1.3,1-2.1,1.2v-1.5c0.4-0.1,0.9-0.4,1.4-0.8s0.8-0.9,1-1.4h1.3V22.7z"/>
		<path d="M49.6,14.1c0.8,0,1.5,0.3,2,0.9c0.6,0.7,0.8,1.9,0.8,3.5c0,1.6-0.3,2.8-0.8,3.5c-0.5,0.6-1.1,0.9-1.9,0.9
			c-0.8,0-1.5-0.3-2-1s-0.8-1.8-0.8-3.4c0-1.6,0.3-2.8,0.8-3.5C48.1,14.4,48.8,14.1,49.6,14.1z M49.6,15.5c-0.2,0-0.4,0.1-0.5,0.2
			s-0.3,0.4-0.4,0.7c-0.1,0.4-0.2,1.1-0.2,2.2s0.1,1.7,0.2,2.1s0.2,0.6,0.4,0.8s0.3,0.2,0.5,0.2s0.4-0.1,0.5-0.2s0.3-0.4,0.4-0.7
			c0.1-0.4,0.2-1.1,0.2-2.1s-0.1-1.7-0.2-2.1s-0.2-0.6-0.4-0.8S49.8,15.5,49.6,15.5z"/>
		<path d="M56.3,14.1c0.8,0,1.5,0.3,2,0.9c0.6,0.7,0.8,1.9,0.8,3.5c0,1.6-0.3,2.8-0.8,3.5c-0.5,0.6-1.1,0.9-1.9,0.9
			c-0.8,0-1.5-0.3-2-1s-0.8-1.8-0.8-3.4c0-1.6,0.3-2.8,0.8-3.5C54.8,14.4,55.4,14.1,56.3,14.1z M56.3,15.5c-0.2,0-0.4,0.1-0.5,0.2
			s-0.3,0.4-0.4,0.7c-0.1,0.4-0.2,1.1-0.2,2.2s0.1,1.7,0.2,2.1s0.2,0.6,0.4,0.8s0.3,0.2,0.5,0.2s0.4-0.1,0.5-0.2s0.3-0.4,0.4-0.7
			c0.1-0.4,0.2-1.1,0.2-2.1s-0.1-1.7-0.2-2.1s-0.2-0.6-0.4-0.8S56.5,15.5,56.3,15.5z"/>
	</g>
</g>
<g id="_x31_4000" class="st0">
	<g class="st1">
		<g>
			<polygon class="st2" points="62.1,33.5 23,33.5 23,3.5 73.1,3.5 			"/>
		</g>
	</g>
	<g class="st1">
		<ellipse class="st8" cx="15.1" cy="22.4" rx="14.3" ry="9.9"/>
		<ellipse class="st15" cx="15.1" cy="23.1" rx="14.3" ry="9.5"/>
		<ellipse class="st16" cx="15.1" cy="22" rx="14.3" ry="9.5"/>
		<ellipse class="st17" cx="15.2" cy="21.3" rx="11.9" ry="7.8"/>
		<text transform="matrix(1.379 0 0 1 4.248 23.6445)" class="st18 st19">5000</text>
	</g>
	<g class="st1">
		<ellipse class="st8" cx="15.1" cy="20.8" rx="14.3" ry="9.9"/>
		<ellipse class="st15" cx="15.1" cy="21.5" rx="14.3" ry="9.5"/>
		<ellipse class="st16" cx="15.1" cy="20.4" rx="14.3" ry="9.5"/>
		<ellipse class="st17" cx="15.2" cy="19.7" rx="11.9" ry="7.8"/>
		<text transform="matrix(1.379 0 0 1 4.248 22.0254)" class="st18 st19">5000</text>
	</g>
	<g class="st1">
		<ellipse class="st8" cx="15.3" cy="19.2" rx="14.3" ry="9.9"/>
		<ellipse class="st9" cx="15.3" cy="19.9" rx="14.3" ry="9.5"/>
		<ellipse class="st10" cx="15.3" cy="18.8" rx="14.3" ry="9.5"/>
		<ellipse class="st11" cx="15.3" cy="18.1" rx="11.9" ry="7.8"/>
		<text transform="matrix(1.379 0 0 1 4.3828 20.4082)" class="st18 st19">1000</text>
	</g>
	<g class="st1">
		<ellipse class="st8" cx="15.3" cy="17.6" rx="14.3" ry="9.9"/>
		<ellipse class="st9" cx="15.3" cy="18.2" rx="14.3" ry="9.5"/>
		<ellipse class="st10" cx="15.3" cy="17.2" rx="14.3" ry="9.5"/>
		<ellipse class="st11" cx="15.3" cy="16.4" rx="11.9" ry="7.8"/>
		<text transform="matrix(1.379 0 0 1 4.3828 18.7881)" class="st18 st19">1000</text>
	</g>
	<g class="st1">
		<ellipse class="st8" cx="15.3" cy="15.9" rx="14.3" ry="9.9"/>
		<ellipse class="st9" cx="15.3" cy="16.6" rx="14.3" ry="9.5"/>
		<ellipse class="st10" cx="15.3" cy="15.5" rx="14.3" ry="9.5"/>
		<ellipse class="st11" cx="15.3" cy="14.8" rx="11.9" ry="7.8"/>
		<text transform="matrix(1.379 0 0 1 4.3828 17.1689)" class="st18 st19">1000</text>
	</g>
	<g class="st1">
		<ellipse class="st8" cx="15.3" cy="14.3" rx="14.3" ry="9.9"/>
		<ellipse class="st9" cx="15.3" cy="15" rx="14.3" ry="9.5"/>
		<ellipse class="st10" cx="15.3" cy="13.9" rx="14.3" ry="9.5"/>
		<ellipse class="st20" cx="15.3" cy="13.2" rx="11.9" ry="7.8"/>
		<g>
			<path d="M8.2,15.6H6.9v-3.6c-0.5,0.3-1.1,0.6-1.7,0.7v-0.9c0.3-0.1,0.7-0.2,1.1-0.5c0.4-0.2,0.7-0.5,0.8-0.8h1.1V15.6z"/>
			<path d="M12.4,10.5c0.7,0,1.2,0.2,1.6,0.5c0.5,0.4,0.7,1.1,0.7,2.1c0,1-0.2,1.6-0.7,2.1c-0.4,0.3-0.9,0.5-1.6,0.5
				c-0.7,0-1.2-0.2-1.6-0.6c-0.4-0.4-0.6-1-0.6-2c0-0.9,0.2-1.6,0.7-2C11.2,10.7,11.8,10.5,12.4,10.5z M12.4,11.3
				c-0.2,0-0.3,0-0.4,0.1c-0.1,0.1-0.2,0.2-0.3,0.4c-0.1,0.2-0.1,0.7-0.1,1.3c0,0.6,0,1,0.1,1.2c0.1,0.2,0.2,0.4,0.3,0.4
				s0.3,0.1,0.4,0.1c0.2,0,0.3,0,0.4-0.1c0.1-0.1,0.2-0.2,0.3-0.4c0.1-0.2,0.1-0.7,0.1-1.3c0-0.6,0-1-0.1-1.2
				c-0.1-0.2-0.2-0.4-0.3-0.4C12.7,11.3,12.6,11.3,12.4,11.3z"/>
			<path d="M17.8,10.5c0.7,0,1.2,0.2,1.6,0.5c0.5,0.4,0.7,1.1,0.7,2.1c0,1-0.2,1.6-0.7,2.1c-0.4,0.3-0.9,0.5-1.6,0.5
				c-0.7,0-1.2-0.2-1.6-0.6c-0.4-0.4-0.6-1-0.6-2c0-0.9,0.2-1.6,0.7-2C16.6,10.7,17.2,10.5,17.8,10.5z M17.8,11.3
				c-0.2,0-0.3,0-0.4,0.1c-0.1,0.1-0.2,0.2-0.3,0.4C17,12.1,17,12.5,17,13.1c0,0.6,0,1,0.1,1.2c0.1,0.2,0.2,0.4,0.3,0.4
				c0.1,0.1,0.3,0.1,0.4,0.1c0.2,0,0.3,0,0.4-0.1c0.1-0.1,0.2-0.2,0.3-0.4c0.1-0.2,0.1-0.7,0.1-1.3c0-0.6,0-1-0.1-1.2
				c-0.1-0.2-0.2-0.4-0.3-0.4C18.1,11.3,18,11.3,17.8,11.3z"/>
			<path d="M23.2,10.5c0.7,0,1.2,0.2,1.6,0.5c0.5,0.4,0.7,1.1,0.7,2.1c0,1-0.2,1.6-0.7,2.1c-0.4,0.3-0.9,0.5-1.6,0.5
				c-0.7,0-1.2-0.2-1.6-0.6c-0.4-0.4-0.6-1-0.6-2c0-0.9,0.2-1.6,0.7-2C22,10.7,22.6,10.5,23.2,10.5z M23.2,11.3
				c-0.2,0-0.3,0-0.4,0.1c-0.1,0.1-0.2,0.2-0.3,0.4c-0.1,0.2-0.1,0.7-0.1,1.3c0,0.6,0,1,0.1,1.2c0.1,0.2,0.2,0.4,0.3,0.4
				c0.1,0.1,0.3,0.1,0.4,0.1c0.2,0,0.3,0,0.4-0.1c0.1-0.1,0.2-0.2,0.3-0.4c0.1-0.2,0.1-0.7,0.1-1.3c0-0.6,0-1-0.1-1.2
				c-0.1-0.2-0.2-0.4-0.3-0.4C23.5,11.3,23.4,11.3,23.2,11.3z"/>
		</g>
	</g>
	<g class="st1">
		<path class="st3" d="M0.4,17c0,0-2.9,11.6,12.7,11.9c2.1,0.1,13-0.1,12.1-11.9C21.9,17,0.4,17,0.4,17z"/>
		<path class="st4" d="M0.4,17c0,0-0.9,10.8,12.4,11.2c7.9,0,12-3.7,12.3-11.2"/>
		<path class="st5" d="M12.9,8.9c0,0,10.5-0.9,12.1,7.6c0.1,0.8-0.2,8.6-11.3,8.5c-2.9,0-12.6-1-13.4-7.7C0.3,15.5,0.6,8.9,12.9,8.9
			z"/>
		<g class="st0">
			<g class="st1">
				<path class="st6" d="M13,8.2c0,0,10.5-0.9,12.1,7.5c0.1,0.8-0.3,9.2-11.4,9.1c-2.9,0-13-1-13.3-8.3C0.4,14.7,0.8,8.2,13,8.2z"/>
			</g>
		</g>
		<path class="st7" d="M13,9.4c0,0,9-0.7,10.5,5.7c0.5,1.4-0.3,7-9.9,7c-2.5,0-11-0.7-11.5-6.4C2.1,14.4,2.4,9.4,13,9.4z"/>
		<g class="st0">
			<g class="st1">
				<path d="M7.4,16.7h1.1v-2.3H7.6v-0.3C8,14,8.3,14,8.6,13.9h0.5v2.8h1V17H7.4V16.7L7.4,16.7z"/>
				<path d="M10.8,15.4c0-1.1,0.6-1.6,1.5-1.6s1.5,0.6,1.5,1.6s-0.5,1.7-1.5,1.7C11.4,17.1,10.8,16.5,10.8,15.4z M13.2,15.4
					c0-0.9-0.4-1.3-0.9-1.3s-0.9,0.4-0.9,1.3c0,0.9,0.4,1.3,0.9,1.3S13.2,16.4,13.2,15.4z"/>
				<path d="M14.5,15.4c0-1.1,0.6-1.6,1.5-1.6s1.5,0.6,1.5,1.6s-0.6,1.7-1.5,1.7S14.5,16.5,14.5,15.4z M16.9,15.4
					c0-0.9-0.4-1.3-0.9-1.3s-0.9,0.4-0.9,1.3c0,0.9,0.4,1.3,0.9,1.3C16.5,16.8,16.9,16.4,16.9,15.4z"/>
			</g>
		</g>
		<g>
			<path class="st0" d="M30.8,20.2h1.8v-5.1c0-0.2,0-0.4,0-0.6l-1.3,1c0,0-0.1,0.1-0.2,0.1c0,0-0.1,0-0.2,0s-0.1,0-0.2-0.1
				s-0.1-0.1-0.1-0.1l-0.5-0.6l2.6-2.3h1.2v7.6h1.6v1.1h-4.8C30.8,21.3,30.8,20.2,30.8,20.2z"/>
			<path class="st0" d="M37.8,20.2h1.8v-5.1c0-0.2,0-0.4,0-0.6l-1.3,1.1c0,0-0.1,0.1-0.2,0.1c0,0-0.1,0-0.2,0c-0.1,0-0.2,0-0.2-0.1
				s-0.1-0.1-0.2-0.1L37,14.9l2.7-2.3H41v7.6h1.6v1.1h-4.8V20.2z"/>
			<path class="st0" d="M49.8,17c0,0.8-0.1,1.4-0.2,2s-0.4,1-0.7,1.4s-0.6,0.6-1,0.8s-0.8,0.3-1.3,0.3s-0.9-0.1-1.3-0.3
				s-0.7-0.5-1-0.8C44,20,43.8,19.6,43.6,19s-0.2-1.2-0.2-2s0.1-1.4,0.2-2s0.4-1,0.7-1.4s0.6-0.6,1-0.8s0.8-0.3,1.3-0.3
				s0.9,0.1,1.3,0.3s0.7,0.4,1,0.8c0.3,0.4,0.5,0.8,0.7,1.4S49.8,16.2,49.8,17z M48.3,17c0-0.6,0-1.1-0.1-1.6s-0.2-0.7-0.4-1
				c-0.2-0.2-0.3-0.4-0.5-0.5s-0.4-0.1-0.6-0.1s-0.4,0.1-0.6,0.1c-0.2,0.1-0.4,0.3-0.5,0.5s-0.3,0.6-0.4,1S45,16.4,45,17
				s0,1.1,0.1,1.6s0.2,0.7,0.4,1s0.3,0.4,0.5,0.5s0.4,0.1,0.6,0.1c0.2,0,0.4,0,0.6-0.1s0.4-0.3,0.5-0.5s0.3-0.6,0.4-1
				S48.3,17.6,48.3,17z"/>
			<path class="st0" d="M56.7,17c0,0.8-0.1,1.4-0.2,2s-0.4,1-0.7,1.4s-0.6,0.6-1,0.8s-0.8,0.3-1.3,0.3s-0.9-0.1-1.3-0.3
				s-0.7-0.5-1-0.8c-0.3-0.4-0.5-0.8-0.7-1.4s-0.2-1.2-0.2-2s0.1-1.4,0.2-2s0.4-1,0.7-1.4s0.6-0.6,1-0.8s0.8-0.3,1.3-0.3
				s0.9,0.1,1.3,0.3s0.7,0.4,1,0.8c0.3,0.4,0.5,0.8,0.7,1.4S56.7,16.2,56.7,17z M55.2,17c0-0.6,0-1.1-0.1-1.6s-0.2-0.7-0.4-1
				c-0.2-0.2-0.3-0.4-0.5-0.5s-0.4-0.1-0.6-0.1s-0.4,0.1-0.6,0.1c-0.2,0.1-0.4,0.3-0.5,0.5s-0.3,0.6-0.4,1S52,16.3,52,17
				s0,1.1,0.1,1.6s0.2,0.7,0.4,1s0.3,0.4,0.5,0.5s0.4,0.1,0.6,0.1c0.2,0,0.4,0,0.6-0.1s0.4-0.3,0.5-0.5s0.3-0.6,0.4-1
				S55.2,17.6,55.2,17z"/>
		</g>
	</g>
	<g class="st1">
		<path d="M38.3,22.7h-1.6v-6.2c-0.6,0.6-1.3,1-2.1,1.2v-1.5c0.4-0.1,0.9-0.4,1.4-0.8s0.8-0.9,1-1.4h1.3V22.7z"/>
		<path d="M44,22.7V21h-3.5v-1.4l3.7-5.5h1.4v5.4h1.1V21h-1.1v1.7H44z M44,19.6v-2.9l-2,2.9H44z"/>
		<path d="M50.3,14.1c0.8,0,1.5,0.3,2,0.9c0.6,0.7,0.8,1.9,0.8,3.5c0,1.6-0.3,2.8-0.8,3.5c-0.5,0.6-1.1,0.9-1.9,0.9
			c-0.8,0-1.5-0.3-2-1s-0.8-1.8-0.8-3.4c0-1.6,0.3-2.8,0.8-3.5C48.8,14.4,49.4,14.1,50.3,14.1z M50.3,15.5c-0.2,0-0.4,0.1-0.5,0.2
			s-0.3,0.4-0.4,0.7c-0.1,0.4-0.2,1.1-0.2,2.2s0.1,1.7,0.2,2.1c0.1,0.4,0.2,0.6,0.4,0.8s0.3,0.2,0.5,0.2s0.4-0.1,0.5-0.2
			s0.3-0.4,0.4-0.7c0.1-0.4,0.2-1.1,0.2-2.1s-0.1-1.7-0.2-2.1s-0.2-0.6-0.4-0.8S50.5,15.5,50.3,15.5z"/>
		<path d="M56.9,14.1c0.8,0,1.5,0.3,2,0.9c0.6,0.7,0.8,1.9,0.8,3.5c0,1.6-0.3,2.8-0.8,3.5c-0.5,0.6-1.1,0.9-1.9,0.9
			c-0.8,0-1.5-0.3-2-1s-0.8-1.8-0.8-3.4c0-1.6,0.3-2.8,0.8-3.5C55.4,14.4,56.1,14.1,56.9,14.1z M56.9,15.5c-0.2,0-0.4,0.1-0.5,0.2
			S56.1,16,56,16.4c-0.1,0.4-0.2,1.1-0.2,2.2s0.1,1.7,0.2,2.1c0.1,0.4,0.2,0.6,0.4,0.8s0.3,0.2,0.5,0.2s0.4-0.1,0.5-0.2
			s0.3-0.4,0.4-0.7c0.1-0.4,0.2-1.1,0.2-2.1s-0.1-1.7-0.2-2.1s-0.2-0.6-0.4-0.8S57.1,15.5,56.9,15.5z"/>
		<path d="M63.6,14.1c0.8,0,1.5,0.3,2,0.9c0.6,0.7,0.8,1.9,0.8,3.5c0,1.6-0.3,2.8-0.8,3.5c-0.5,0.6-1.1,0.9-1.9,0.9
			c-0.8,0-1.5-0.3-2-1s-0.8-1.8-0.8-3.4c0-1.6,0.3-2.8,0.8-3.5C62.1,14.4,62.8,14.1,63.6,14.1z M63.6,15.5c-0.2,0-0.4,0.1-0.5,0.2
			s-0.3,0.4-0.4,0.7c-0.1,0.4-0.2,1.1-0.2,2.2s0.1,1.7,0.2,2.1c0.1,0.4,0.2,0.6,0.4,0.8s0.3,0.2,0.5,0.2s0.4-0.1,0.5-0.2
			c0.2-0.1,0.3-0.4,0.4-0.7c0.1-0.4,0.2-1.1,0.2-2.1s-0.1-1.7-0.2-2.1s-0.2-0.6-0.4-0.8C64,15.5,63.8,15.5,63.6,15.5z"/>
	</g>
</g>
<g id="_x32_4000">
	<g>
		<g>
			<polygon class="st2" points="64.9,33.5 23,33.5 23,3.5 76.7,3.5 			"/>
		</g>
	</g>
	<g>
		<g>
			<ellipse class="st8" cx="15.2" cy="24.1" rx="14.3" ry="9.9"/>
			<ellipse class="st15" cx="15.2" cy="24.7" rx="14.3" ry="9.5"/>
			<ellipse class="st16" cx="15.2" cy="23.7" rx="14.3" ry="9.5"/>
			<ellipse class="st17" cx="15.2" cy="23" rx="11.9" ry="7.8"/>
			<text transform="matrix(1.379 0 0 1 4.2723 25.2979)" class="st18 st19">5000</text>
		</g>
		<g>
			<ellipse class="st8" cx="15.1" cy="22.4" rx="14.3" ry="9.9"/>
			<ellipse class="st15" cx="15.1" cy="23.1" rx="14.3" ry="9.5"/>
			<ellipse class="st16" cx="15.1" cy="22" rx="14.3" ry="9.5"/>
			<ellipse class="st17" cx="15.2" cy="21.3" rx="11.9" ry="7.8"/>
			<text transform="matrix(1.379 0 0 1 4.2332 23.6017)" class="st18 st19">5000</text>
		</g>
		<g>
			<ellipse class="st8" cx="15.1" cy="20.8" rx="14.3" ry="9.9"/>
			<ellipse class="st15" cx="15.1" cy="21.4" rx="14.3" ry="9.5"/>
			<ellipse class="st16" cx="15.1" cy="20.4" rx="14.3" ry="9.5"/>
			<ellipse class="st17" cx="15.2" cy="19.6" rx="11.9" ry="7.8"/>
			<text transform="matrix(1.379 0 0 1 4.248 21.9912)" class="st18 st19">5000</text>
		</g>
		<g>
			<ellipse class="st8" cx="15.1" cy="19.1" rx="14.3" ry="9.9"/>
			<ellipse class="st15" cx="15.1" cy="19.8" rx="14.3" ry="9.5"/>
			<ellipse class="st16" cx="15.1" cy="18.7" rx="14.3" ry="9.5"/>
			<ellipse class="st17" cx="15.2" cy="18" rx="11.9" ry="7.8"/>
			<text transform="matrix(1.379 0 0 1 4.248 20.3721)" class="st18 st19">5000</text>
		</g>
		<g>
			<ellipse class="st8" cx="15.3" cy="17.5" rx="14.3" ry="9.9"/>
			<ellipse class="st9" cx="15.3" cy="18.2" rx="14.3" ry="9.5"/>
			<ellipse class="st10" cx="15.3" cy="17.1" rx="14.3" ry="9.5"/>
			<ellipse class="st11" cx="15.3" cy="16.4" rx="11.9" ry="7.8"/>
			<text transform="matrix(1.379 0 0 1 4.3828 18.7549)" class="st18 st19">1000</text>
		</g>
		<g>
			<ellipse class="st8" cx="15.3" cy="15.9" rx="14.3" ry="9.9"/>
			<ellipse class="st9" cx="15.3" cy="16.6" rx="14.3" ry="9.5"/>
			<ellipse class="st10" cx="15.3" cy="15.5" rx="14.3" ry="9.5"/>
			<ellipse class="st11" cx="15.3" cy="14.8" rx="11.9" ry="7.8"/>
			<text transform="matrix(1.379 0 0 1 4.3828 17.1348)" class="st18 st19">1000</text>
		</g>
		<g>
			<ellipse class="st8" cx="15.3" cy="14.3" rx="14.3" ry="9.9"/>
			<ellipse class="st9" cx="15.3" cy="15" rx="14.3" ry="9.5"/>
			<ellipse class="st10" cx="15.3" cy="13.9" rx="14.3" ry="9.5"/>
			<ellipse class="st11" cx="15.3" cy="13.2" rx="11.9" ry="7.8"/>
			<text transform="matrix(1.379 0 0 1 4.3828 15.5156)" class="st18 st19">1000</text>
		</g>
		<g>
			<ellipse class="st8" cx="15.3" cy="12.7" rx="14.3" ry="9.9"/>
			<ellipse class="st9" cx="15.3" cy="13.3" rx="14.3" ry="9.5"/>
			<ellipse class="st10" cx="15.3" cy="12.3" rx="14.3" ry="9.5"/>
			<ellipse class="st20" cx="15.3" cy="11.6" rx="11.9" ry="7.8"/>
			<g>
				<path d="M8.2,13.9H6.9v-3.6c-0.5,0.3-1.1,0.6-1.7,0.7v-0.9C5.5,10,5.9,9.9,6.3,9.6C6.7,9.4,7,9.1,7.1,8.8h1.1V13.9z"/>
				<path d="M12.4,8.8c0.7,0,1.2,0.2,1.6,0.5c0.5,0.4,0.7,1.1,0.7,2.1c0,1-0.2,1.6-0.7,2.1c-0.4,0.3-0.9,0.5-1.6,0.5
					c-0.7,0-1.2-0.2-1.6-0.6c-0.4-0.4-0.6-1-0.6-2c0-0.9,0.2-1.6,0.7-2C11.2,9,11.8,8.8,12.4,8.8z M12.4,9.6c-0.2,0-0.3,0-0.4,0.1
					c-0.1,0.1-0.2,0.2-0.3,0.4c-0.1,0.2-0.1,0.7-0.1,1.3c0,0.6,0,1,0.1,1.2c0.1,0.2,0.2,0.4,0.3,0.4c0.1,0.1,0.3,0.1,0.4,0.1
					c0.2,0,0.3,0,0.4-0.1c0.1-0.1,0.2-0.2,0.3-0.4c0.1-0.2,0.1-0.7,0.1-1.3c0-0.6,0-1-0.1-1.2C13.1,10,13,9.8,12.9,9.8
					C12.7,9.7,12.6,9.6,12.4,9.6z"/>
				<path d="M17.8,8.8c0.7,0,1.2,0.2,1.6,0.5c0.5,0.4,0.7,1.1,0.7,2.1c0,1-0.2,1.6-0.7,2.1C19,13.8,18.5,14,17.8,14
					c-0.7,0-1.2-0.2-1.6-0.6c-0.4-0.4-0.6-1-0.6-2c0-0.9,0.2-1.6,0.7-2C16.6,9,17.2,8.8,17.8,8.8z M17.8,9.6c-0.2,0-0.3,0-0.4,0.1
					c-0.1,0.1-0.2,0.2-0.3,0.4C17,10.4,17,10.8,17,11.4c0,0.6,0,1,0.1,1.2c0.1,0.2,0.2,0.4,0.3,0.4c0.1,0.1,0.3,0.1,0.4,0.1
					c0.2,0,0.3,0,0.4-0.1c0.1-0.1,0.2-0.2,0.3-0.4c0.1-0.2,0.1-0.7,0.1-1.3c0-0.6,0-1-0.1-1.2c-0.1-0.2-0.2-0.4-0.3-0.4
					C18.1,9.7,18,9.6,17.8,9.6z"/>
				<path d="M23.2,8.8c0.7,0,1.2,0.2,1.6,0.5c0.5,0.4,0.7,1.1,0.7,2.1c0,1-0.2,1.6-0.7,2.1c-0.4,0.3-0.9,0.5-1.6,0.5
					c-0.7,0-1.2-0.2-1.6-0.6c-0.4-0.4-0.6-1-0.6-2c0-0.9,0.2-1.6,0.7-2C22,9,22.6,8.8,23.2,8.8z M23.2,9.6c-0.2,0-0.3,0-0.4,0.1
					c-0.1,0.1-0.2,0.2-0.3,0.4c-0.1,0.2-0.1,0.7-0.1,1.3c0,0.6,0,1,0.1,1.2c0.1,0.2,0.2,0.4,0.3,0.4c0.1,0.1,0.3,0.1,0.4,0.1
					c0.2,0,0.3,0,0.4-0.1c0.1-0.1,0.2-0.2,0.3-0.4c0.1-0.2,0.1-0.7,0.1-1.3c0-0.6,0-1-0.1-1.2c-0.1-0.2-0.2-0.4-0.3-0.4
					C23.5,9.7,23.4,9.6,23.2,9.6z"/>
			</g>
		</g>
	</g>
	<g>
		<path d="M38.8,21.2v1.5H33c0.1-0.6,0.3-1.1,0.6-1.6s0.9-1.2,1.9-2.1c0.7-0.7,1.2-1.2,1.4-1.4c0.2-0.3,0.3-0.7,0.3-1
			c0-0.4-0.1-0.6-0.3-0.8s-0.5-0.3-0.8-0.3c-0.3,0-0.6,0.1-0.8,0.3s-0.3,0.6-0.4,1l-1.6-0.2c0.1-0.9,0.4-1.6,0.9-2s1.2-0.6,1.9-0.6
			c0.8,0,1.5,0.2,2,0.7s0.7,1,0.7,1.7c0,0.4-0.1,0.8-0.2,1.1s-0.4,0.7-0.7,1.1c-0.2,0.3-0.6,0.6-1.1,1.1s-0.8,0.8-1,0.9
			s-0.3,0.3-0.3,0.5H38.8z"/>
		<path d="M43.1,22.7V21h-3.5v-1.4l3.7-5.5h1.4v5.4h1.1V21h-1.1v1.7H43.1z M43.1,19.6v-2.9l-2,2.9H43.1z"/>
		<path d="M49.4,14.1c0.8,0,1.5,0.3,2,0.9c0.6,0.7,0.8,1.9,0.8,3.5c0,1.6-0.3,2.8-0.8,3.5c-0.5,0.6-1.1,0.9-1.9,0.9
			c-0.8,0-1.5-0.3-2-1s-0.8-1.8-0.8-3.4c0-1.6,0.3-2.8,0.8-3.5C47.9,14.4,48.5,14.1,49.4,14.1z M49.4,15.5c-0.2,0-0.4,0.1-0.5,0.2
			s-0.3,0.4-0.4,0.7c-0.1,0.4-0.2,1.1-0.2,2.2s0.1,1.7,0.2,2.1s0.2,0.6,0.4,0.8s0.3,0.2,0.5,0.2s0.4-0.1,0.5-0.2s0.3-0.4,0.4-0.7
			c0.1-0.4,0.2-1.1,0.2-2.1s-0.1-1.7-0.2-2.1s-0.2-0.6-0.4-0.8S49.6,15.5,49.4,15.5z"/>
		<path d="M56,14.1c0.8,0,1.5,0.3,2,0.9c0.6,0.7,0.8,1.9,0.8,3.5c0,1.6-0.3,2.8-0.8,3.5c-0.5,0.6-1.1,0.9-1.9,0.9
			c-0.8,0-1.5-0.3-2-1s-0.8-1.8-0.8-3.4c0-1.6,0.3-2.8,0.8-3.5C54.6,14.4,55.2,14.1,56,14.1z M56,15.5c-0.2,0-0.4,0.1-0.5,0.2
			s-0.3,0.4-0.4,0.7C55,16.8,55,17.5,55,18.5s0.1,1.7,0.2,2.1s0.2,0.6,0.4,0.8s0.3,0.2,0.5,0.2s0.4-0.1,0.5-0.2s0.3-0.4,0.4-0.7
			c0.1-0.4,0.2-1.1,0.2-2.1s-0.1-1.7-0.2-2.1s-0.2-0.6-0.4-0.8S56.2,15.5,56,15.5z"/>
		<path d="M62.7,14.1c0.8,0,1.5,0.3,2,0.9c0.6,0.7,0.8,1.9,0.8,3.5c0,1.6-0.3,2.8-0.8,3.5c-0.5,0.6-1.1,0.9-1.9,0.9
			c-0.8,0-1.5-0.3-2-1s-0.8-1.8-0.8-3.4c0-1.6,0.3-2.8,0.8-3.5C61.2,14.4,61.9,14.1,62.7,14.1z M62.7,15.5c-0.2,0-0.4,0.1-0.5,0.2
			s-0.3,0.4-0.4,0.7c-0.1,0.4-0.2,1.1-0.2,2.2s0.1,1.7,0.2,2.1s0.2,0.6,0.4,0.8s0.3,0.2,0.5,0.2s0.4-0.1,0.5-0.2s0.3-0.4,0.4-0.7
			c0.1-0.4,0.2-1.1,0.2-2.1s-0.1-1.7-0.2-2.1s-0.2-0.6-0.4-0.8S62.9,15.5,62.7,15.5z"/>
	</g>
</g>
<g id="_x31_2000" class="st0">
	<g class="st1">
		<g>
			<polygon class="st2" points="62.1,33.5 23,33.5 23,3.5 73.1,3.5 			"/>
		</g>
	</g>
	<g class="st1">
		<g>
			<ellipse class="st8" cx="15.1" cy="20.8" rx="14.3" ry="9.9"/>
			<ellipse class="st15" cx="15.1" cy="21.5" rx="14.3" ry="9.5"/>
			<ellipse class="st16" cx="15.1" cy="20.4" rx="14.3" ry="9.5"/>
			<ellipse class="st17" cx="15.2" cy="19.7" rx="11.9" ry="7.8"/>
			<text transform="matrix(1.379 0 0 1 4.248 22.0258)" class="st18 st19">5000</text>
		</g>
		<g>
			<ellipse class="st8" cx="15.1" cy="19.2" rx="14.3" ry="9.9"/>
			<ellipse class="st15" cx="15.1" cy="19.9" rx="14.3" ry="9.5"/>
			<ellipse class="st16" cx="15.1" cy="18.8" rx="14.3" ry="9.5"/>
			<ellipse class="st17" cx="15.2" cy="18.1" rx="11.9" ry="7.8"/>
			<text transform="matrix(1.379 0 0 1 4.248 20.4066)" class="st18 st19">5000</text>
		</g>
		<g>
			<ellipse class="st8" cx="15.3" cy="17.6" rx="14.3" ry="9.9"/>
			<ellipse class="st9" cx="15.3" cy="18.2" rx="14.3" ry="9.5"/>
			<ellipse class="st10" cx="15.3" cy="17.2" rx="14.3" ry="9.5"/>
			<ellipse class="st11" cx="15.3" cy="16.4" rx="11.9" ry="7.8"/>
			<text transform="matrix(1.379 0 0 1 4.3828 18.7894)" class="st18 st19">1000</text>
		</g>
		<g>
			<ellipse class="st8" cx="15.3" cy="15.9" rx="14.3" ry="9.9"/>
			<ellipse class="st9" cx="15.3" cy="16.6" rx="14.3" ry="9.5"/>
			<ellipse class="st10" cx="15.3" cy="15.5" rx="14.3" ry="9.5"/>
			<ellipse class="st20" cx="15.3" cy="14.8" rx="11.9" ry="7.8"/>
			<g>
				<path d="M8.2,17.2H6.9v-3.6c-0.5,0.3-1.1,0.6-1.7,0.7v-0.9c0.3-0.1,0.7-0.2,1.1-0.5c0.4-0.2,0.7-0.5,0.8-0.8h1.1V17.2z"/>
				<path d="M12.4,12.1c0.7,0,1.2,0.2,1.6,0.5c0.5,0.4,0.7,1.1,0.7,2.1c0,1-0.2,1.6-0.7,2.1c-0.4,0.3-0.9,0.5-1.6,0.5
					c-0.7,0-1.2-0.2-1.6-0.6s-0.6-1-0.6-2c0-0.9,0.2-1.6,0.7-2C11.2,12.3,11.8,12.1,12.4,12.1z M12.4,12.9c-0.2,0-0.3,0-0.4,0.1
					c-0.1,0.1-0.2,0.2-0.3,0.4c-0.1,0.2-0.1,0.7-0.1,1.3s0,1,0.1,1.2c0.1,0.2,0.2,0.4,0.3,0.4s0.3,0.1,0.4,0.1s0.3,0,0.4-0.1
					c0.1-0.1,0.2-0.2,0.3-0.4c0.1-0.2,0.1-0.7,0.1-1.3s0-1-0.1-1.2c-0.1-0.2-0.2-0.4-0.3-0.4C12.7,13,12.6,12.9,12.4,12.9z"/>
				<path d="M17.8,12.1c0.7,0,1.2,0.2,1.6,0.5c0.5,0.4,0.7,1.1,0.7,2.1c0,1-0.2,1.6-0.7,2.1c-0.4,0.3-0.9,0.5-1.6,0.5
					c-0.7,0-1.2-0.2-1.6-0.6s-0.6-1-0.6-2c0-0.9,0.2-1.6,0.7-2C16.6,12.3,17.2,12.1,17.8,12.1z M17.8,12.9c-0.2,0-0.3,0-0.4,0.1
					c-0.1,0.1-0.2,0.2-0.3,0.4C17,13.7,17,14.1,17,14.7s0,1,0.1,1.2c0.1,0.2,0.2,0.4,0.3,0.4s0.3,0.1,0.4,0.1s0.3,0,0.4-0.1
					c0.1-0.1,0.2-0.2,0.3-0.4c0.1-0.2,0.1-0.7,0.1-1.3s0-1-0.1-1.2c-0.1-0.2-0.2-0.4-0.3-0.4C18.1,13,18,12.9,17.8,12.9z"/>
				<path d="M23.2,12.1c0.7,0,1.2,0.2,1.6,0.5c0.5,0.4,0.7,1.1,0.7,2.1c0,1-0.2,1.6-0.7,2.1c-0.4,0.3-0.9,0.5-1.6,0.5
					c-0.7,0-1.2-0.2-1.6-0.6s-0.6-1-0.6-2c0-0.9,0.2-1.6,0.7-2C22,12.3,22.6,12.1,23.2,12.1z M23.2,12.9c-0.2,0-0.3,0-0.4,0.1
					c-0.1,0.1-0.2,0.2-0.3,0.4c-0.1,0.2-0.1,0.7-0.1,1.3s0,1,0.1,1.2c0.1,0.2,0.2,0.4,0.3,0.4s0.3,0.1,0.4,0.1s0.3,0,0.4-0.1
					c0.1-0.1,0.2-0.2,0.3-0.4c0.1-0.2,0.1-0.7,0.1-1.3s0-1-0.1-1.2c-0.1-0.2-0.2-0.4-0.3-0.4C23.5,13,23.4,12.9,23.2,12.9z"/>
			</g>
		</g>
	</g>
	<g class="st1">
		<path d="M38.3,22.7h-1.6v-6.2c-0.6,0.6-1.3,1-2.1,1.2v-1.5c0.4-0.1,0.9-0.4,1.4-0.8s0.8-0.9,1-1.4h1.3V22.7z"/>
		<path class="st0" d="M44,22.7V21h-3.5v-1.4l3.7-5.5h1.4v5.4h1.1V21h-1.1v1.7H44z M44,19.6v-2.9l-2,2.9H44z"/>
		<path d="M50.3,14.1c0.8,0,1.5,0.3,2,0.9c0.6,0.7,0.8,1.9,0.8,3.5c0,1.6-0.3,2.8-0.8,3.5c-0.5,0.6-1.1,0.9-1.9,0.9
			c-0.8,0-1.5-0.3-2-1s-0.8-1.8-0.8-3.4c0-1.6,0.3-2.8,0.8-3.5C48.8,14.4,49.4,14.1,50.3,14.1z M50.3,15.5c-0.2,0-0.4,0.1-0.5,0.2
			s-0.3,0.4-0.4,0.7c-0.1,0.4-0.2,1.1-0.2,2.2s0.1,1.7,0.2,2.1c0.1,0.4,0.2,0.6,0.4,0.8s0.3,0.2,0.5,0.2s0.4-0.1,0.5-0.2
			s0.3-0.4,0.4-0.7c0.1-0.4,0.2-1.1,0.2-2.1s-0.1-1.7-0.2-2.1s-0.2-0.6-0.4-0.8S50.5,15.5,50.3,15.5z"/>
		<path d="M56.9,14.1c0.8,0,1.5,0.3,2,0.9c0.6,0.7,0.8,1.9,0.8,3.5c0,1.6-0.3,2.8-0.8,3.5c-0.5,0.6-1.1,0.9-1.9,0.9
			c-0.8,0-1.5-0.3-2-1s-0.8-1.8-0.8-3.4c0-1.6,0.3-2.8,0.8-3.5C55.4,14.4,56.1,14.1,56.9,14.1z M56.9,15.5c-0.2,0-0.4,0.1-0.5,0.2
			S56.1,16,56,16.4c-0.1,0.4-0.2,1.1-0.2,2.2s0.1,1.7,0.2,2.1c0.1,0.4,0.2,0.6,0.4,0.8s0.3,0.2,0.5,0.2s0.4-0.1,0.5-0.2
			s0.3-0.4,0.4-0.7c0.1-0.4,0.2-1.1,0.2-2.1s-0.1-1.7-0.2-2.1s-0.2-0.6-0.4-0.8S57.1,15.5,56.9,15.5z"/>
		<path d="M63.6,14.1c0.8,0,1.5,0.3,2,0.9c0.6,0.7,0.8,1.9,0.8,3.5c0,1.6-0.3,2.8-0.8,3.5c-0.5,0.6-1.1,0.9-1.9,0.9
			c-0.8,0-1.5-0.3-2-1s-0.8-1.8-0.8-3.4c0-1.6,0.3-2.8,0.8-3.5C62.1,14.4,62.8,14.1,63.6,14.1z M63.6,15.5c-0.2,0-0.4,0.1-0.5,0.2
			s-0.3,0.4-0.4,0.7c-0.1,0.4-0.2,1.1-0.2,2.2s0.1,1.7,0.2,2.1c0.1,0.4,0.2,0.6,0.4,0.8s0.3,0.2,0.5,0.2s0.4-0.1,0.5-0.2
			c0.2-0.1,0.3-0.4,0.4-0.7c0.1-0.4,0.2-1.1,0.2-2.1s-0.1-1.7-0.2-2.1s-0.2-0.6-0.4-0.8C64,15.5,63.8,15.5,63.6,15.5z"/>
	</g>
	<path class="st1" d="M45.8,21.3v1.5H40c0.1-0.6,0.3-1.1,0.6-1.6s0.9-1.2,1.9-2.1c0.7-0.7,1.2-1.2,1.4-1.4c0.2-0.3,0.3-0.7,0.3-1
		c0-0.4-0.1-0.6-0.3-0.8s-0.5-0.3-0.8-0.3c-0.3,0-0.6,0.1-0.8,0.3s-0.3,0.6-0.4,1l-1.6-0.2c0.1-0.9,0.4-1.6,0.9-2s1.2-0.6,1.9-0.6
		c0.8,0,1.5,0.2,2,0.7s0.7,1,0.7,1.7c0,0.4-0.1,0.8-0.2,1.1s-0.4,0.7-0.7,1.1c-0.2,0.3-0.6,0.6-1.1,1.1s-0.8,0.8-1,0.9
		s-0.3,0.3-0.3,0.5H45.8z"/>
</g>
<g id="_x34_800" class="st0">
	<g class="st1">
		<g>
			<polygon class="st2" points="62.1,33.5 23,33.5 23,3.5 73.1,3.5 			"/>
		</g>
	</g>
	<g>
		<path class="st1" d="M38.3,22.7h-1.6v-6.2c-0.6,0.6-1.3,1-2.1,1.2v-1.5c0.4-0.1,0.9-0.4,1.4-0.8s0.8-0.9,1-1.4h1.3V22.7z"/>
		<path class="st1" d="M44.4,22.7h-1.6v-6.2c-0.6,0.6-1.3,1-2.1,1.2v-1.5c0.4-0.1,0.9-0.4,1.4-0.8s0.8-0.9,1-1.4h1.3V22.7z"/>
		<path class="st1" d="M49.6,14.1c0.8,0,1.5,0.3,2,0.9c0.6,0.7,0.8,1.9,0.8,3.5c0,1.6-0.3,2.8-0.8,3.5c-0.5,0.6-1.1,0.9-1.9,0.9
			c-0.8,0-1.5-0.3-2-1s-0.8-1.8-0.8-3.4c0-1.6,0.3-2.8,0.8-3.5C48.1,14.4,48.8,14.1,49.6,14.1z M49.6,15.5c-0.2,0-0.4,0.1-0.5,0.2
			s-0.3,0.4-0.4,0.7c-0.1,0.4-0.2,1.1-0.2,2.2s0.1,1.7,0.2,2.1s0.2,0.6,0.4,0.8s0.3,0.2,0.5,0.2s0.4-0.1,0.5-0.2s0.3-0.4,0.4-0.7
			c0.1-0.4,0.2-1.1,0.2-2.1s-0.1-1.7-0.2-2.1s-0.2-0.6-0.4-0.8S49.8,15.5,49.6,15.5z"/>
		<path class="st1" d="M56.3,14.1c0.8,0,1.5,0.3,2,0.9c0.6,0.7,0.8,1.9,0.8,3.5c0,1.6-0.3,2.8-0.8,3.5c-0.5,0.6-1.1,0.9-1.9,0.9
			c-0.8,0-1.5-0.3-2-1s-0.8-1.8-0.8-3.4c0-1.6,0.3-2.8,0.8-3.5C54.8,14.4,55.4,14.1,56.3,14.1z M56.3,15.5c-0.2,0-0.4,0.1-0.5,0.2
			s-0.3,0.4-0.4,0.7c-0.1,0.4-0.2,1.1-0.2,2.2s0.1,1.7,0.2,2.1s0.2,0.6,0.4,0.8s0.3,0.2,0.5,0.2s0.4-0.1,0.5-0.2s0.3-0.4,0.4-0.7
			c0.1-0.4,0.2-1.1,0.2-2.1s-0.1-1.7-0.2-2.1s-0.2-0.6-0.4-0.8S56.5,15.5,56.3,15.5z"/>
	</g>
	<g class="st1">
		<g>
			<g>
				<ellipse class="st8" cx="14.7" cy="26.2" rx="13.8" ry="9.5"/>
				<ellipse class="st9" cx="14.7" cy="26.9" rx="13.8" ry="9.1"/>
				<ellipse class="st10" cx="14.7" cy="25.9" rx="13.8" ry="9.1"/>
				<ellipse class="st11" cx="14.7" cy="25.2" rx="11.5" ry="7.5"/>
				<g>
					<path d="M7.9,27.4H6.6v-3.5c-0.5,0.3-1,0.6-1.7,0.7v-0.8c0.3-0.1,0.7-0.2,1.1-0.5c0.4-0.2,0.7-0.5,0.8-0.8h1V27.4z"/>
					<path d="M12,22.5c0.6,0,1.2,0.2,1.5,0.5c0.4,0.4,0.7,1.1,0.7,2c0,0.9-0.2,1.6-0.7,2c-0.4,0.3-0.9,0.5-1.5,0.5
						c-0.7,0-1.2-0.2-1.6-0.5C10,26.6,9.8,26,9.8,25c0-0.9,0.2-1.6,0.7-2C10.8,22.7,11.3,22.5,12,22.5z M12,23.3
						c-0.2,0-0.3,0-0.4,0.1c-0.1,0.1-0.2,0.2-0.3,0.4c-0.1,0.2-0.1,0.6-0.1,1.2s0,1,0.1,1.2s0.2,0.4,0.3,0.4
						c0.1,0.1,0.3,0.1,0.4,0.1s0.3,0,0.4-0.1c0.1-0.1,0.2-0.2,0.3-0.4c0.1-0.2,0.1-0.6,0.1-1.2s0-1-0.1-1.2
						c-0.1-0.2-0.2-0.4-0.3-0.4S12.1,23.3,12,23.3z"/>
					<path d="M17.2,22.5c0.6,0,1.2,0.2,1.5,0.5c0.4,0.4,0.7,1.1,0.7,2c0,0.9-0.2,1.6-0.7,2c-0.4,0.3-0.9,0.5-1.5,0.5
						c-0.7,0-1.2-0.2-1.6-0.5C15.2,26.6,15,26,15,25c0-0.9,0.2-1.6,0.7-2C16,22.7,16.5,22.5,17.2,22.5z M17.2,23.3
						c-0.2,0-0.3,0-0.4,0.1c-0.1,0.1-0.2,0.2-0.3,0.4c-0.1,0.2-0.1,0.6-0.1,1.2s0,1,0.1,1.2s0.2,0.4,0.3,0.4
						c0.1,0.1,0.3,0.1,0.4,0.1s0.3,0,0.4-0.1c0.1-0.1,0.2-0.2,0.3-0.4C18,26,18,25.6,18,25s0-1-0.1-1.2c-0.1-0.2-0.2-0.4-0.3-0.4
						S17.3,23.3,17.2,23.3z"/>
					<path d="M22.4,22.5c0.6,0,1.2,0.2,1.5,0.5c0.4,0.4,0.7,1.1,0.7,2c0,0.9-0.2,1.6-0.7,2c-0.4,0.3-0.9,0.5-1.5,0.5
						c-0.7,0-1.2-0.2-1.6-0.5c-0.4-0.4-0.6-1-0.6-1.9c0-0.9,0.2-1.6,0.7-2C21.2,22.7,21.7,22.5,22.4,22.5z M22.4,23.3
						c-0.2,0-0.3,0-0.4,0.1c-0.1,0.1-0.2,0.2-0.3,0.4c-0.1,0.2-0.1,0.6-0.1,1.2s0,1,0.1,1.2s0.2,0.4,0.3,0.4
						c0.1,0.1,0.3,0.1,0.4,0.1s0.3,0,0.4-0.1c0.1-0.1,0.2-0.2,0.3-0.4c0.1-0.2,0.1-0.6,0.1-1.2s0-1-0.1-1.2
						c-0.1-0.2-0.2-0.4-0.3-0.4S22.5,23.3,22.4,23.3z"/>
				</g>
			</g>
			<g>
				<ellipse class="st8" cx="14.7" cy="24.7" rx="13.8" ry="9.5"/>
				<ellipse class="st9" cx="14.7" cy="25.4" rx="13.8" ry="9.1"/>
				<ellipse class="st10" cx="14.7" cy="24.3" rx="13.8" ry="9.1"/>
				<ellipse class="st11" cx="14.7" cy="23.7" rx="11.5" ry="7.5"/>
				<g>
					<path d="M7.9,25.9H6.6v-3.5c-0.5,0.3-1,0.6-1.7,0.7v-0.8C5.2,22.2,5.6,22,6,21.8c0.4-0.2,0.7-0.5,0.8-0.8h1V25.9z"/>
					<path d="M11.9,21c0.6,0,1.2,0.2,1.5,0.5c0.4,0.4,0.7,1.1,0.7,2c0,0.9-0.2,1.6-0.7,2c-0.4,0.3-0.9,0.5-1.5,0.5
						c-0.7,0-1.2-0.2-1.6-0.5c-0.4-0.4-0.6-1-0.6-1.9c0-0.9,0.2-1.6,0.7-2C10.8,21.2,11.3,21,11.9,21z M11.9,21.8
						c-0.2,0-0.3,0-0.4,0.1c-0.1,0.1-0.2,0.2-0.3,0.4c-0.1,0.2-0.1,0.6-0.1,1.2s0,1,0.1,1.2s0.2,0.4,0.3,0.4
						c0.1,0.1,0.3,0.1,0.4,0.1s0.3,0,0.4-0.1c0.1-0.1,0.2-0.2,0.3-0.4c0.1-0.2,0.1-0.6,0.1-1.2s0-1-0.1-1.2
						c-0.1-0.2-0.2-0.4-0.3-0.4S12.1,21.8,11.9,21.8z"/>
					<path d="M17.1,21c0.6,0,1.2,0.2,1.5,0.5c0.4,0.4,0.7,1.1,0.7,2c0,0.9-0.2,1.6-0.7,2c-0.4,0.3-0.9,0.5-1.5,0.5
						c-0.7,0-1.2-0.2-1.6-0.5c-0.4-0.4-0.6-1-0.6-1.9c0-0.9,0.2-1.6,0.7-2C16,21.2,16.5,21,17.1,21z M17.1,21.8
						c-0.2,0-0.3,0-0.4,0.1c-0.1,0.1-0.2,0.2-0.3,0.4c-0.1,0.2-0.1,0.6-0.1,1.2s0,1,0.1,1.2s0.2,0.4,0.3,0.4
						c0.1,0.1,0.3,0.1,0.4,0.1s0.3,0,0.4-0.1c0.1-0.1,0.2-0.2,0.3-0.4c0.1-0.2,0.1-0.6,0.1-1.2s0-1-0.1-1.2
						c-0.1-0.2-0.2-0.4-0.3-0.4S17.3,21.8,17.1,21.8z"/>
					<path d="M22.3,21c0.6,0,1.2,0.2,1.5,0.5c0.4,0.4,0.7,1.1,0.7,2c0,0.9-0.2,1.6-0.7,2C23.5,25.8,23,26,22.3,26
						c-0.7,0-1.2-0.2-1.6-0.5c-0.4-0.4-0.6-1-0.6-1.9c0-0.9,0.2-1.6,0.7-2C21.2,21.2,21.7,21,22.3,21z M22.3,21.8
						c-0.2,0-0.3,0-0.4,0.1c-0.1,0.1-0.2,0.2-0.3,0.4c-0.1,0.2-0.1,0.6-0.1,1.2s0,1,0.1,1.2s0.2,0.4,0.3,0.4
						c0.1,0.1,0.3,0.1,0.4,0.1s0.3,0,0.4-0.1c0.1-0.1,0.2-0.2,0.3-0.4c0.1-0.2,0.1-0.6,0.1-1.2s0-1-0.1-1.2
						c-0.1-0.2-0.2-0.4-0.3-0.4S22.5,21.8,22.3,21.8z"/>
				</g>
			</g>
			<g>
				<ellipse class="st12" cx="14.7" cy="23.8" rx="13.8" ry="9.1"/>
				<ellipse class="st13" cx="14.7" cy="22.8" rx="13.8" ry="9.1"/>
				<ellipse class="st14" cx="14.7" cy="22.1" rx="11.5" ry="7.5"/>
				<g>
					<path d="M10.4,24.3H9.2v-3.5c-0.5,0.3-1,0.6-1.7,0.7v-0.8c0.3-0.1,0.7-0.2,1.1-0.5C9,20,9.3,19.8,9.4,19.5h1V24.3z"/>
					<path d="M14.5,19.5c0.6,0,1.2,0.2,1.5,0.5c0.4,0.4,0.7,1.1,0.7,2c0,0.9-0.2,1.6-0.7,2c-0.4,0.3-0.9,0.5-1.5,0.5
						c-0.7,0-1.2-0.2-1.6-0.5c-0.4-0.4-0.6-1-0.6-1.9c0-0.9,0.2-1.6,0.7-2C13.4,19.6,13.9,19.5,14.5,19.5z M14.5,20.2
						c-0.2,0-0.3,0-0.4,0.1c-0.1,0.1-0.2,0.2-0.3,0.4c-0.1,0.2-0.1,0.6-0.1,1.2s0,1,0.1,1.2c0.1,0.2,0.2,0.4,0.3,0.4
						c0.1,0.1,0.3,0.1,0.4,0.1s0.3,0,0.4-0.1c0.1-0.1,0.2-0.2,0.3-0.4c0.1-0.2,0.1-0.6,0.1-1.2s0-1-0.1-1.2
						c-0.1-0.2-0.2-0.4-0.3-0.4S14.7,20.2,14.5,20.2z"/>
					<path d="M19.7,19.5c0.6,0,1.2,0.2,1.5,0.5c0.4,0.4,0.7,1.1,0.7,2c0,0.9-0.2,1.6-0.7,2c-0.4,0.3-0.9,0.5-1.5,0.5
						c-0.7,0-1.2-0.2-1.6-0.5c-0.4-0.4-0.6-1-0.6-1.9c0-0.9,0.2-1.6,0.7-2C18.6,19.6,19.1,19.5,19.7,19.5z M19.7,20.2
						c-0.2,0-0.3,0-0.4,0.1c-0.1,0.1-0.2,0.2-0.3,0.4c-0.1,0.2-0.1,0.6-0.1,1.2s0,1,0.1,1.2c0.1,0.2,0.2,0.4,0.3,0.4
						c0.1,0.1,0.3,0.1,0.4,0.1s0.3,0,0.4-0.1c0.1-0.1,0.2-0.2,0.3-0.4c0.1-0.2,0.1-0.6,0.1-1.2s0-1-0.1-1.2
						c-0.1-0.2-0.2-0.4-0.3-0.4S19.9,20.2,19.7,20.2z"/>
				</g>
			</g>
		</g>
		<g>
			<ellipse class="st12" cx="14.7" cy="22.2" rx="13.8" ry="9.1"/>
			<ellipse class="st13" cx="14.7" cy="21.1" rx="13.8" ry="9.1"/>
			<ellipse class="st14" cx="14.7" cy="20.4" rx="11.5" ry="7.5"/>
			<g>
				<path d="M10.4,22.7H9.2v-3.5c-0.5,0.3-1,0.6-1.7,0.7V19c0.3-0.1,0.7-0.2,1.1-0.5c0.4-0.2,0.7-0.5,0.8-0.8h1V22.7z"/>
				<path d="M14.5,17.8c0.6,0,1.2,0.2,1.5,0.5c0.4,0.4,0.7,1.1,0.7,2c0,0.9-0.2,1.6-0.7,2c-0.4,0.3-0.9,0.5-1.5,0.5
					c-0.7,0-1.2-0.2-1.6-0.5c-0.4-0.4-0.6-1-0.6-1.9c0-0.9,0.2-1.6,0.7-2C13.4,18,13.9,17.8,14.5,17.8z M14.5,18.6
					c-0.2,0-0.3,0-0.4,0.1c-0.1,0.1-0.2,0.2-0.3,0.4c-0.1,0.2-0.1,0.6-0.1,1.2s0,1,0.1,1.2c0.1,0.2,0.2,0.4,0.3,0.4
					c0.1,0.1,0.3,0.1,0.4,0.1s0.3,0,0.4-0.1c0.1-0.1,0.2-0.2,0.3-0.4c0.1-0.2,0.1-0.6,0.1-1.2s0-1-0.1-1.2c-0.1-0.2-0.2-0.4-0.3-0.4
					S14.7,18.6,14.5,18.6z"/>
				<path d="M19.7,17.8c0.6,0,1.2,0.2,1.5,0.5c0.4,0.4,0.7,1.1,0.7,2c0,0.9-0.2,1.6-0.7,2c-0.4,0.3-0.9,0.5-1.5,0.5
					c-0.7,0-1.2-0.2-1.6-0.5c-0.4-0.4-0.6-1-0.6-1.9c0-0.9,0.2-1.6,0.7-2C18.6,18,19.1,17.8,19.7,17.8z M19.7,18.6
					c-0.2,0-0.3,0-0.4,0.1c-0.1,0.1-0.2,0.2-0.3,0.4c-0.1,0.2-0.1,0.6-0.1,1.2s0,1,0.1,1.2c0.1,0.2,0.2,0.4,0.3,0.4
					c0.1,0.1,0.3,0.1,0.4,0.1s0.3,0,0.4-0.1c0.1-0.1,0.2-0.2,0.3-0.4c0.1-0.2,0.1-0.6,0.1-1.2s0-1-0.1-1.2c-0.1-0.2-0.2-0.4-0.3-0.4
					S19.9,18.6,19.7,18.6z"/>
			</g>
		</g>
		<g>
			<ellipse class="st12" cx="14.7" cy="20.4" rx="13.8" ry="9.1"/>
			<ellipse class="st13" cx="14.7" cy="19.4" rx="13.8" ry="9.1"/>
			<ellipse class="st14" cx="14.7" cy="18.7" rx="11.5" ry="7.5"/>
			<g>
				<path d="M10.4,21H9.2v-3.5c-0.5,0.3-1,0.6-1.7,0.7v-0.8c0.3-0.1,0.7-0.2,1.1-0.5c0.4-0.2,0.7-0.5,0.8-0.8h1V21z"/>
				<path d="M14.5,16.1c0.6,0,1.2,0.2,1.5,0.5c0.4,0.4,0.7,1.1,0.7,2c0,0.9-0.2,1.6-0.7,2c-0.4,0.3-0.9,0.5-1.5,0.5
					c-0.7,0-1.2-0.2-1.6-0.5c-0.4-0.4-0.6-1-0.6-1.9c0-0.9,0.2-1.6,0.7-2C13.4,16.2,13.9,16.1,14.5,16.1z M14.5,16.9
					c-0.2,0-0.3,0-0.4,0.1c-0.1,0.1-0.2,0.2-0.3,0.4c-0.1,0.2-0.1,0.6-0.1,1.2s0,1,0.1,1.2c0.1,0.2,0.2,0.4,0.3,0.4
					c0.1,0.1,0.3,0.1,0.4,0.1s0.3,0,0.4-0.1c0.1-0.1,0.2-0.2,0.3-0.4c0.1-0.2,0.1-0.6,0.1-1.2s0-1-0.1-1.2c-0.1-0.2-0.2-0.4-0.3-0.4
					S14.7,16.9,14.5,16.9z"/>
				<path d="M19.7,16.1c0.6,0,1.2,0.2,1.5,0.5c0.4,0.4,0.7,1.1,0.7,2c0,0.9-0.2,1.6-0.7,2c-0.4,0.3-0.9,0.5-1.5,0.5
					c-0.7,0-1.2-0.2-1.6-0.5c-0.4-0.4-0.6-1-0.6-1.9c0-0.9,0.2-1.6,0.7-2C18.6,16.2,19.1,16.1,19.7,16.1z M19.7,16.9
					c-0.2,0-0.3,0-0.4,0.1c-0.1,0.1-0.2,0.2-0.3,0.4c-0.1,0.2-0.1,0.6-0.1,1.2s0,1,0.1,1.2c0.1,0.2,0.2,0.4,0.3,0.4
					c0.1,0.1,0.3,0.1,0.4,0.1s0.3,0,0.4-0.1c0.1-0.1,0.2-0.2,0.3-0.4c0.1-0.2,0.1-0.6,0.1-1.2s0-1-0.1-1.2c-0.1-0.2-0.2-0.4-0.3-0.4
					S19.9,16.9,19.7,16.9z"/>
			</g>
		</g>
		<g>
			<ellipse class="st12" cx="14.7" cy="18.6" rx="13.8" ry="9.1"/>
			<ellipse class="st13" cx="14.7" cy="17.5" rx="13.8" ry="9.1"/>
			<ellipse class="st14" cx="14.7" cy="16.8" rx="11.5" ry="7.5"/>
			<g>
				<path d="M10.4,19.1H9.2v-3.5c-0.5,0.3-1,0.6-1.7,0.7v-0.8c0.3-0.1,0.7-0.2,1.1-0.5c0.4-0.2,0.7-0.5,0.8-0.8h1V19.1z"/>
				<path d="M14.5,14.2c0.6,0,1.2,0.2,1.5,0.5c0.4,0.4,0.7,1.1,0.7,2c0,0.9-0.2,1.6-0.7,2c-0.4,0.3-0.9,0.5-1.5,0.5
					c-0.7,0-1.2-0.2-1.6-0.5c-0.4-0.4-0.6-1-0.6-1.9c0-0.9,0.2-1.6,0.7-2C13.4,14.4,13.9,14.2,14.5,14.2z M14.5,15
					c-0.2,0-0.3,0-0.4,0.1c-0.1,0.1-0.2,0.2-0.3,0.4c-0.1,0.2-0.1,0.6-0.1,1.2s0,1,0.1,1.2c0.1,0.2,0.2,0.4,0.3,0.4
					c0.1,0.1,0.3,0.1,0.4,0.1s0.3,0,0.4-0.1c0.1-0.1,0.2-0.2,0.3-0.4c0.1-0.2,0.1-0.6,0.1-1.2s0-1-0.1-1.2c-0.1-0.2-0.2-0.4-0.3-0.4
					S14.7,15,14.5,15z"/>
				<path d="M19.7,14.2c0.6,0,1.2,0.2,1.5,0.5c0.4,0.4,0.7,1.1,0.7,2c0,0.9-0.2,1.6-0.7,2c-0.4,0.3-0.9,0.5-1.5,0.5
					c-0.7,0-1.2-0.2-1.6-0.5c-0.4-0.4-0.6-1-0.6-1.9c0-0.9,0.2-1.6,0.7-2C18.6,14.4,19.1,14.2,19.7,14.2z M19.7,15
					c-0.2,0-0.3,0-0.4,0.1c-0.1,0.1-0.2,0.2-0.3,0.4c-0.1,0.2-0.1,0.6-0.1,1.2s0,1,0.1,1.2c0.1,0.2,0.2,0.4,0.3,0.4
					c0.1,0.1,0.3,0.1,0.4,0.1s0.3,0,0.4-0.1c0.1-0.1,0.2-0.2,0.3-0.4c0.1-0.2,0.1-0.6,0.1-1.2s0-1-0.1-1.2c-0.1-0.2-0.2-0.4-0.3-0.4
					S19.9,15,19.7,15z"/>
			</g>
		</g>
		<g>
			<ellipse class="st12" cx="14.7" cy="16.9" rx="13.8" ry="9.1"/>
			<ellipse class="st13" cx="14.7" cy="15.8" rx="13.8" ry="9.1"/>
			<ellipse class="st14" cx="14.7" cy="15.1" rx="11.5" ry="7.5"/>
			<g>
				<path d="M10.5,17.4H9.2v-3.5c-0.5,0.3-1,0.6-1.7,0.7v-0.8c0.3-0.1,0.7-0.2,1.1-0.5c0.4-0.2,0.7-0.5,0.8-0.8h1V17.4z"/>
				<path d="M14.6,12.5c0.6,0,1.2,0.2,1.5,0.5c0.4,0.4,0.7,1.1,0.7,2c0,0.9-0.2,1.6-0.7,2c-0.4,0.3-0.9,0.5-1.5,0.5
					c-0.7,0-1.2-0.2-1.6-0.5c-0.4-0.4-0.6-1-0.6-1.9c0-0.9,0.2-1.6,0.7-2C13.4,12.7,13.9,12.5,14.6,12.5z M14.6,13.3
					c-0.2,0-0.3,0-0.4,0.1c-0.1,0.1-0.2,0.2-0.3,0.4c-0.1,0.2-0.1,0.6-0.1,1.2s0,1,0.1,1.2c0.1,0.2,0.2,0.4,0.3,0.4
					c0.1,0.1,0.3,0.1,0.4,0.1s0.3,0,0.4-0.1c0.1-0.1,0.2-0.2,0.3-0.4c0.1-0.2,0.1-0.6,0.1-1.2s0-1-0.1-1.2c-0.1-0.2-0.2-0.4-0.3-0.4
					S14.7,13.3,14.6,13.3z"/>
				<path d="M19.8,12.5c0.6,0,1.2,0.2,1.5,0.5c0.4,0.4,0.7,1.1,0.7,2c0,0.9-0.2,1.6-0.7,2c-0.4,0.3-0.9,0.5-1.5,0.5
					c-0.7,0-1.2-0.2-1.6-0.5c-0.4-0.4-0.6-1-0.6-1.9c0-0.9,0.2-1.6,0.7-2C18.6,12.7,19.1,12.5,19.8,12.5z M19.8,13.3
					c-0.2,0-0.3,0-0.4,0.1c-0.1,0.1-0.2,0.2-0.3,0.4C19,14,18.9,14.4,18.9,15s0,1,0.1,1.2c0.1,0.2,0.2,0.4,0.3,0.4
					c0.1,0.1,0.3,0.1,0.4,0.1s0.3,0,0.4-0.1c0.1-0.1,0.2-0.2,0.3-0.4c0.1-0.2,0.1-0.6,0.1-1.2s0-1-0.1-1.2c-0.1-0.2-0.2-0.4-0.3-0.4
					S19.9,13.3,19.8,13.3z"/>
			</g>
		</g>
		<g>
			<ellipse class="st12" cx="14.7" cy="15" rx="13.8" ry="9.1"/>
			<ellipse class="st13" cx="14.7" cy="13.9" rx="13.8" ry="9.1"/>
			<ellipse class="st14" cx="14.7" cy="13.2" rx="11.5" ry="7.5"/>
			<g>
				<path d="M10.4,15.5H9.2V12c-0.5,0.3-1,0.6-1.7,0.7v-0.8c0.3-0.1,0.7-0.2,1.1-0.5c0.4-0.2,0.7-0.5,0.8-0.8h1V15.5z"/>
				<path d="M14.5,10.6c0.6,0,1.2,0.2,1.5,0.5c0.4,0.4,0.7,1.1,0.7,2c0,0.9-0.2,1.6-0.7,2c-0.4,0.3-0.9,0.5-1.5,0.5
					c-0.7,0-1.2-0.2-1.6-0.5c-0.4-0.4-0.6-1-0.6-1.9c0-0.9,0.2-1.6,0.7-2C13.4,10.8,13.9,10.6,14.5,10.6z M14.5,11.4
					c-0.2,0-0.3,0-0.4,0.1c-0.1,0.1-0.2,0.2-0.3,0.4c-0.1,0.2-0.1,0.6-0.1,1.2s0,1,0.1,1.2c0.1,0.2,0.2,0.4,0.3,0.4
					c0.1,0.1,0.3,0.1,0.4,0.1s0.3,0,0.4-0.1c0.1-0.1,0.2-0.2,0.3-0.4c0.1-0.2,0.1-0.6,0.1-1.2s0-1-0.1-1.2c-0.1-0.2-0.2-0.4-0.3-0.4
					S14.7,11.4,14.5,11.4z"/>
				<path d="M19.7,10.6c0.6,0,1.2,0.2,1.5,0.5c0.4,0.4,0.7,1.1,0.7,2c0,0.9-0.2,1.6-0.7,2c-0.4,0.3-0.9,0.5-1.5,0.5
					c-0.7,0-1.2-0.2-1.6-0.5c-0.4-0.4-0.6-1-0.6-1.9c0-0.9,0.2-1.6,0.7-2C18.6,10.8,19.1,10.6,19.7,10.6z M19.7,11.4
					c-0.2,0-0.3,0-0.4,0.1c-0.1,0.1-0.2,0.2-0.3,0.4c-0.1,0.2-0.1,0.6-0.1,1.2s0,1,0.1,1.2c0.1,0.2,0.2,0.4,0.3,0.4
					c0.1,0.1,0.3,0.1,0.4,0.1s0.3,0,0.4-0.1c0.1-0.1,0.2-0.2,0.3-0.4c0.1-0.2,0.1-0.6,0.1-1.2s0-1-0.1-1.2c-0.1-0.2-0.2-0.4-0.3-0.4
					S19.9,11.4,19.7,11.4z"/>
			</g>
		</g>
		<g>
			<ellipse class="st12" cx="14.7" cy="13.2" rx="13.8" ry="9.1"/>
			<ellipse class="st13" cx="14.7" cy="12.2" rx="13.8" ry="9.1"/>
			<ellipse class="st14" cx="14.8" cy="11.5" rx="11.5" ry="7.5"/>
			<g>
				<path d="M10.5,13.8H9.2v-3.5c-0.5,0.3-1,0.6-1.7,0.7v-0.8C7.9,10,8.3,9.9,8.7,9.7c0.4-0.2,0.7-0.5,0.8-0.8h1V13.8z"/>
				<path d="M14.6,8.9c0.6,0,1.2,0.2,1.5,0.5c0.4,0.4,0.7,1.1,0.7,2c0,0.9-0.2,1.6-0.7,2c-0.4,0.3-0.9,0.5-1.5,0.5
					c-0.7,0-1.2-0.2-1.6-0.5c-0.4-0.4-0.6-1-0.6-1.9c0-0.9,0.2-1.6,0.7-2C13.4,9.1,13.9,8.9,14.6,8.9z M14.6,9.7
					c-0.2,0-0.3,0-0.4,0.1c-0.1,0.1-0.2,0.2-0.3,0.4c-0.1,0.2-0.1,0.6-0.1,1.2s0,1,0.1,1.2c0.1,0.2,0.2,0.4,0.3,0.4
					c0.1,0.1,0.3,0.1,0.4,0.1s0.3,0,0.4-0.1c0.1-0.1,0.2-0.2,0.3-0.4c0.1-0.2,0.1-0.6,0.1-1.2s0-1-0.1-1.2C15.2,10,15.1,9.8,15,9.8
					S14.8,9.7,14.6,9.7z"/>
				<path d="M19.8,8.9c0.6,0,1.2,0.2,1.5,0.5c0.4,0.4,0.7,1.1,0.7,2c0,0.9-0.2,1.6-0.7,2c-0.4,0.3-0.9,0.5-1.5,0.5
					c-0.7,0-1.2-0.2-1.6-0.5c-0.4-0.4-0.6-1-0.6-1.9c0-0.9,0.2-1.6,0.7-2C18.6,9.1,19.1,8.9,19.8,8.9z M19.8,9.7
					c-0.2,0-0.3,0-0.4,0.1c-0.1,0.1-0.2,0.2-0.3,0.4C19,10.4,19,10.8,19,11.4s0,1,0.1,1.2c0.1,0.2,0.2,0.4,0.3,0.4
					c0.1,0.1,0.3,0.1,0.4,0.1s0.3,0,0.4-0.1c0.1-0.1,0.2-0.2,0.3-0.4c0.1-0.2,0.1-0.6,0.1-1.2s0-1-0.1-1.2c-0.1-0.2-0.2-0.4-0.3-0.4
					S20,9.7,19.8,9.7z"/>
			</g>
		</g>
		<g>
			<ellipse class="st12" cx="14.7" cy="11.2" rx="13.8" ry="9.1"/>
			<ellipse class="st13" cx="14.7" cy="10.1" rx="13.8" ry="9.1"/>
			<ellipse class="st14" cx="14.8" cy="9.4" rx="11.5" ry="7.5"/>
			<g>
				<path d="M10.5,11.7H9.2V8.2c-0.5,0.3-1,0.6-1.7,0.7V8.1C7.9,8,8.3,7.8,8.7,7.6c0.4-0.2,0.7-0.5,0.8-0.8h1V11.7z"/>
				<path d="M14.6,6.8c0.6,0,1.2,0.2,1.5,0.5c0.4,0.4,0.7,1.1,0.7,2c0,0.9-0.2,1.6-0.7,2c-0.4,0.3-0.9,0.5-1.5,0.5
					c-0.7,0-1.2-0.2-1.6-0.5c-0.4-0.4-0.6-1-0.6-1.9c0-0.9,0.2-1.6,0.7-2C13.4,7,13.9,6.8,14.6,6.8z M14.6,7.6c-0.2,0-0.3,0-0.4,0.1
					c-0.1,0.1-0.2,0.2-0.3,0.4c-0.1,0.2-0.1,0.6-0.1,1.2s0,1,0.1,1.2c0.1,0.2,0.2,0.4,0.3,0.4c0.1,0.1,0.3,0.1,0.4,0.1
					s0.3,0,0.4-0.1c0.1-0.1,0.2-0.2,0.3-0.4c0.1-0.2,0.1-0.6,0.1-1.2s0-1-0.1-1.2c-0.1-0.2-0.2-0.4-0.3-0.4S14.8,7.6,14.6,7.6z"/>
				<path d="M19.8,6.8c0.6,0,1.2,0.2,1.5,0.5c0.4,0.4,0.7,1.1,0.7,2c0,0.9-0.2,1.6-0.7,2c-0.4,0.3-0.9,0.5-1.5,0.5
					c-0.7,0-1.2-0.2-1.6-0.5c-0.4-0.4-0.6-1-0.6-1.9c0-0.9,0.2-1.6,0.7-2C18.6,7,19.1,6.8,19.8,6.8z M19.8,7.6c-0.2,0-0.3,0-0.4,0.1
					c-0.1,0.1-0.2,0.2-0.3,0.4C19,8.3,19,8.7,19,9.3s0,1,0.1,1.2c0.1,0.2,0.2,0.4,0.3,0.4c0.1,0.1,0.3,0.1,0.4,0.1s0.3,0,0.4-0.1
					c0.1-0.1,0.2-0.2,0.3-0.4c0.1-0.2,0.1-0.6,0.1-1.2s0-1-0.1-1.2c-0.1-0.2-0.2-0.4-0.3-0.4S20,7.6,19.8,7.6z"/>
			</g>
		</g>
	</g>
	<g class="st1">
		<path d="M37.4,22.7V21h-3.5v-1.4l3.7-5.5H39v5.4H40V21H39v1.7H37.4z M37.4,19.6v-2.9l-2,2.9H37.4z"/>
		<path d="M42.2,18.1c-0.4-0.2-0.7-0.4-0.9-0.7s-0.3-0.7-0.3-1c0-0.6,0.2-1.2,0.7-1.6s1.1-0.6,1.9-0.6c0.8,0,1.5,0.2,1.9,0.6
			s0.7,0.9,0.7,1.6c0,0.4-0.1,0.8-0.3,1.1s-0.5,0.5-0.9,0.7c0.5,0.2,0.8,0.5,1.1,0.8s0.4,0.8,0.4,1.3c0,0.8-0.3,1.4-0.8,1.9
			s-1.2,0.7-2,0.7c-0.8,0-1.4-0.2-2-0.6c-0.6-0.5-0.9-1.1-0.9-2c0-0.5,0.1-0.9,0.3-1.3S41.7,18.3,42.2,18.1z M42.4,20.1
			c0,0.5,0.1,0.8,0.3,1.1s0.5,0.4,0.9,0.4c0.3,0,0.6-0.1,0.8-0.4s0.3-0.6,0.3-1.1c0-0.4-0.1-0.7-0.3-1s-0.5-0.4-0.9-0.4
			c-0.4,0-0.7,0.1-0.9,0.4S42.4,19.8,42.4,20.1z M42.6,16.4c0,0.3,0.1,0.6,0.3,0.8s0.4,0.3,0.7,0.3c0.3,0,0.6-0.1,0.8-0.3
			s0.3-0.4,0.3-0.8c0-0.3-0.1-0.6-0.3-0.7s-0.4-0.3-0.7-0.3c-0.3,0-0.6,0.1-0.8,0.3S42.6,16.1,42.6,16.4z"/>
		<path d="M50.3,14.1c0.8,0,1.5,0.3,2,0.9c0.6,0.7,0.8,1.9,0.8,3.5c0,1.6-0.3,2.8-0.8,3.5c-0.5,0.6-1.1,0.9-1.9,0.9
			c-0.8,0-1.5-0.3-2-1s-0.8-1.8-0.8-3.4c0-1.6,0.3-2.8,0.8-3.5C48.8,14.4,49.4,14.1,50.3,14.1z M50.3,15.5c-0.2,0-0.4,0.1-0.5,0.2
			s-0.3,0.4-0.4,0.7c-0.1,0.4-0.2,1.1-0.2,2.2s0.1,1.7,0.2,2.1s0.2,0.6,0.4,0.8s0.3,0.2,0.5,0.2s0.4-0.1,0.5-0.2s0.3-0.4,0.4-0.7
			c0.1-0.4,0.2-1.1,0.2-2.1s-0.1-1.7-0.2-2.1s-0.2-0.6-0.4-0.8S50.5,15.5,50.3,15.5z"/>
		<path d="M56.9,14.1c0.8,0,1.5,0.3,2,0.9c0.6,0.7,0.8,1.9,0.8,3.5c0,1.6-0.3,2.8-0.8,3.5c-0.5,0.6-1.1,0.9-1.9,0.9
			c-0.8,0-1.5-0.3-2-1s-0.8-1.8-0.8-3.4c0-1.6,0.3-2.8,0.8-3.5C55.5,14.4,56.1,14.1,56.9,14.1z M56.9,15.5c-0.2,0-0.4,0.1-0.5,0.2
			S56.1,16,56,16.4c-0.1,0.4-0.2,1.1-0.2,2.2s0.1,1.7,0.2,2.1s0.2,0.6,0.4,0.8s0.3,0.2,0.5,0.2s0.4-0.1,0.5-0.2s0.3-0.4,0.4-0.7
			c0.1-0.4,0.2-1.1,0.2-2.1s-0.1-1.7-0.2-2.1s-0.2-0.6-0.4-0.8S57.1,15.5,56.9,15.5z"/>
	</g>
</g>
</svg>
